<mxfile host="Electron" agent="Mozilla/5.0 (Windows NT 10.0; Win64; x64) AppleWebKit/537.36 (KHTML, like Gecko) draw.io/26.0.9 Chrome/128.0.6613.186 Electron/32.2.5 Safari/537.36" version="26.0.9">
  <diagram name="Страница — 1" id="oVTNsja1JPTvcXBxidkP">
    <mxGraphModel dx="1233" dy="713" grid="1" gridSize="10" guides="1" tooltips="1" connect="1" arrows="1" fold="1" page="1" pageScale="1" pageWidth="827" pageHeight="1169" math="0" shadow="0">
      <root>
        <mxCell id="0" />
        <mxCell id="1" parent="0" />
        <mxCell id="oQnaQG7ZyuOdrtneP2a4-26" value="" style="edgeStyle=orthogonalEdgeStyle;rounded=0;orthogonalLoop=1;jettySize=auto;html=1;" parent="1" source="oQnaQG7ZyuOdrtneP2a4-27" edge="1">
          <mxGeometry relative="1" as="geometry">
            <mxPoint x="474" y="150" as="targetPoint" />
          </mxGeometry>
        </mxCell>
        <mxCell id="oQnaQG7ZyuOdrtneP2a4-27" value="Начало" style="ellipse;whiteSpace=wrap;html=1;" parent="1" vertex="1">
          <mxGeometry x="414" y="80" width="120" height="40" as="geometry" />
        </mxCell>
        <mxCell id="oQnaQG7ZyuOdrtneP2a4-28" value="" style="edgeStyle=orthogonalEdgeStyle;rounded=0;orthogonalLoop=1;jettySize=auto;html=1;" parent="1" source="oQnaQG7ZyuOdrtneP2a4-29" edge="1">
          <mxGeometry relative="1" as="geometry">
            <mxPoint x="474" y="200" as="targetPoint" />
          </mxGeometry>
        </mxCell>
        <mxCell id="oQnaQG7ZyuOdrtneP2a4-29" value="int main()" style="shape=process;whiteSpace=wrap;html=1;backgroundOutline=1;" parent="1" vertex="1">
          <mxGeometry x="414" y="150" width="120" height="30" as="geometry" />
        </mxCell>
        <mxCell id="oQnaQG7ZyuOdrtneP2a4-32" value="setlocale(LC_ALL, &quot;Russian&quot;);" style="rounded=0;whiteSpace=wrap;html=1;" parent="1" vertex="1">
          <mxGeometry x="414" y="200" width="120" height="30" as="geometry" />
        </mxCell>
        <mxCell id="oQnaQG7ZyuOdrtneP2a4-33" value="" style="edgeStyle=orthogonalEdgeStyle;rounded=0;orthogonalLoop=1;jettySize=auto;html=1;" parent="1" edge="1">
          <mxGeometry relative="1" as="geometry">
            <mxPoint x="474" y="230" as="sourcePoint" />
            <mxPoint x="474" y="250" as="targetPoint" />
          </mxGeometry>
        </mxCell>
        <mxCell id="oQnaQG7ZyuOdrtneP2a4-34" value="&lt;div&gt;#define _CRT_SECURE_NO_WARNINGS&lt;/div&gt;&lt;div&gt;#include &amp;lt;iostream&amp;gt;&lt;/div&gt;&lt;div&gt;#include &amp;lt;cstring&amp;gt;&lt;/div&gt;&lt;div&gt;#include &amp;lt;cstdio&amp;gt;&lt;/div&gt;&lt;div&gt;using namespace std;&lt;/div&gt;&lt;div&gt;int len;&lt;br&gt;&lt;/div&gt;&lt;div&gt;List l;&lt;br&gt;&lt;/div&gt;&lt;div&gt;char key[100];&lt;br&gt;&lt;/div&gt;&lt;div&gt;int k, index;&lt;br&gt;&lt;/div&gt;" style="strokeWidth=2;html=1;shape=mxgraph.flowchart.annotation_2;align=left;labelPosition=right;pointerEvents=1;" parent="1" vertex="1">
          <mxGeometry x="554" y="80" width="50" height="100" as="geometry" />
        </mxCell>
        <mxCell id="oQnaQG7ZyuOdrtneP2a4-35" value="" style="endArrow=none;dashed=1;html=1;rounded=0;entryX=-0.04;entryY=0.503;entryDx=0;entryDy=0;entryPerimeter=0;" parent="1" target="oQnaQG7ZyuOdrtneP2a4-34" edge="1">
          <mxGeometry width="50" height="50" relative="1" as="geometry">
            <mxPoint x="474" y="130" as="sourcePoint" />
            <mxPoint x="544" y="130" as="targetPoint" />
          </mxGeometry>
        </mxCell>
        <mxCell id="oQnaQG7ZyuOdrtneP2a4-37" style="edgeStyle=orthogonalEdgeStyle;rounded=0;orthogonalLoop=1;jettySize=auto;html=1;exitX=0.5;exitY=1;exitDx=0;exitDy=0;" parent="1" source="oQnaQG7ZyuOdrtneP2a4-36" edge="1">
          <mxGeometry relative="1" as="geometry">
            <mxPoint x="475.1379310344828" y="309.9999999999999" as="targetPoint" />
          </mxGeometry>
        </mxCell>
        <mxCell id="oQnaQG7ZyuOdrtneP2a4-36" value="cout &lt;&lt; &quot;Введите длинну списка: &quot;;" style="shape=parallelogram;perimeter=parallelogramPerimeter;whiteSpace=wrap;html=1;fixedSize=1;" parent="1" vertex="1">
          <mxGeometry x="390" y="250" width="170" height="40" as="geometry" />
        </mxCell>
        <mxCell id="oQnaQG7ZyuOdrtneP2a4-39" style="edgeStyle=orthogonalEdgeStyle;rounded=0;orthogonalLoop=1;jettySize=auto;html=1;exitX=0.5;exitY=1;exitDx=0;exitDy=0;" parent="1" source="oQnaQG7ZyuOdrtneP2a4-38" edge="1">
          <mxGeometry relative="1" as="geometry">
            <mxPoint x="473.7586206896551" y="369.9999999999999" as="targetPoint" />
          </mxGeometry>
        </mxCell>
        <mxCell id="oQnaQG7ZyuOdrtneP2a4-38" value="cin &amp;gt;&amp;gt; len;" style="shape=parallelogram;perimeter=parallelogramPerimeter;whiteSpace=wrap;html=1;fixedSize=1;" parent="1" vertex="1">
          <mxGeometry x="389" y="310" width="170" height="40" as="geometry" />
        </mxCell>
        <mxCell id="oQnaQG7ZyuOdrtneP2a4-77" style="edgeStyle=orthogonalEdgeStyle;rounded=0;orthogonalLoop=1;jettySize=auto;html=1;exitX=1;exitY=0.5;exitDx=0;exitDy=0;" parent="1" source="oQnaQG7ZyuOdrtneP2a4-40" edge="1">
          <mxGeometry relative="1" as="geometry">
            <mxPoint x="859.9999999999998" y="439.9999999999999" as="targetPoint" />
          </mxGeometry>
        </mxCell>
        <mxCell id="oQnaQG7ZyuOdrtneP2a4-40" value="" style="verticalLabelPosition=bottom;verticalAlign=top;html=1;shape=hexagon;perimeter=hexagonPerimeter2;arcSize=6;size=0.11951219512195121;" parent="1" vertex="1">
          <mxGeometry x="369.44285714285706" y="370" width="205" height="50" as="geometry" />
        </mxCell>
        <mxCell id="oQnaQG7ZyuOdrtneP2a4-41" value="" style="edgeStyle=orthogonalEdgeStyle;rounded=0;orthogonalLoop=1;jettySize=auto;html=1;" parent="1" edge="1">
          <mxGeometry relative="1" as="geometry">
            <mxPoint x="473.70285714285706" y="420" as="sourcePoint" />
            <mxPoint x="473.94285714285706" y="440" as="targetPoint" />
          </mxGeometry>
        </mxCell>
        <mxCell id="oQnaQG7ZyuOdrtneP2a4-42" value="&lt;div&gt;for (int i = 0; i &amp;lt; len; i++)&lt;/div&gt;" style="text;html=1;align=center;verticalAlign=middle;whiteSpace=wrap;rounded=0;" parent="1" vertex="1">
          <mxGeometry x="400" y="380" width="150" height="30" as="geometry" />
        </mxCell>
        <mxCell id="oQnaQG7ZyuOdrtneP2a4-43" value="" style="edgeStyle=orthogonalEdgeStyle;rounded=0;orthogonalLoop=1;jettySize=auto;html=1;" parent="1" edge="1">
          <mxGeometry relative="1" as="geometry">
            <mxPoint x="473.94285714285706" y="420" as="sourcePoint" />
            <mxPoint x="473.94285714285706" y="440" as="targetPoint" />
          </mxGeometry>
        </mxCell>
        <mxCell id="oQnaQG7ZyuOdrtneP2a4-61" style="edgeStyle=orthogonalEdgeStyle;rounded=0;orthogonalLoop=1;jettySize=auto;html=1;exitX=0;exitY=0.5;exitDx=0;exitDy=0;" parent="1" source="oQnaQG7ZyuOdrtneP2a4-60" edge="1">
          <mxGeometry relative="1" as="geometry">
            <mxPoint x="330" y="530" as="targetPoint" />
          </mxGeometry>
        </mxCell>
        <mxCell id="oQnaQG7ZyuOdrtneP2a4-63" style="edgeStyle=orthogonalEdgeStyle;rounded=0;orthogonalLoop=1;jettySize=auto;html=1;exitX=1;exitY=0.5;exitDx=0;exitDy=0;" parent="1" source="oQnaQG7ZyuOdrtneP2a4-60" edge="1">
          <mxGeometry relative="1" as="geometry">
            <mxPoint x="629.9999999999998" y="530" as="targetPoint" />
          </mxGeometry>
        </mxCell>
        <mxCell id="oQnaQG7ZyuOdrtneP2a4-60" value="if (i == 0)" style="rhombus;whiteSpace=wrap;html=1;" parent="1" vertex="1">
          <mxGeometry x="410" y="440" width="130" height="80" as="geometry" />
        </mxCell>
        <mxCell id="oQnaQG7ZyuOdrtneP2a4-65" style="edgeStyle=orthogonalEdgeStyle;rounded=0;orthogonalLoop=1;jettySize=auto;html=1;exitX=0.5;exitY=1;exitDx=0;exitDy=0;" parent="1" source="oQnaQG7ZyuOdrtneP2a4-62" edge="1">
          <mxGeometry relative="1" as="geometry">
            <mxPoint x="479.9999999999998" y="580" as="targetPoint" />
            <Array as="points">
              <mxPoint x="330" y="580" />
            </Array>
          </mxGeometry>
        </mxCell>
        <mxCell id="oQnaQG7ZyuOdrtneP2a4-62" value="init(l);" style="rounded=0;whiteSpace=wrap;html=1;" parent="1" vertex="1">
          <mxGeometry x="270" y="530" width="120" height="30" as="geometry" />
        </mxCell>
        <mxCell id="oQnaQG7ZyuOdrtneP2a4-66" style="edgeStyle=orthogonalEdgeStyle;rounded=0;orthogonalLoop=1;jettySize=auto;html=1;exitX=0.5;exitY=1;exitDx=0;exitDy=0;" parent="1" source="oQnaQG7ZyuOdrtneP2a4-64" edge="1">
          <mxGeometry relative="1" as="geometry">
            <mxPoint x="479.9999999999998" y="580" as="targetPoint" />
            <Array as="points">
              <mxPoint x="630" y="580" />
            </Array>
          </mxGeometry>
        </mxCell>
        <mxCell id="oQnaQG7ZyuOdrtneP2a4-64" value="addEnd(l);" style="rounded=0;whiteSpace=wrap;html=1;" parent="1" vertex="1">
          <mxGeometry x="570" y="530" width="120" height="30" as="geometry" />
        </mxCell>
        <mxCell id="oQnaQG7ZyuOdrtneP2a4-67" value="" style="endArrow=classic;html=1;rounded=0;entryX=0;entryY=0.5;entryDx=0;entryDy=0;" parent="1" target="oQnaQG7ZyuOdrtneP2a4-40" edge="1">
          <mxGeometry width="50" height="50" relative="1" as="geometry">
            <mxPoint x="480" y="580" as="sourcePoint" />
            <mxPoint x="530" y="530" as="targetPoint" />
            <Array as="points">
              <mxPoint x="480" y="610" />
              <mxPoint x="250" y="610" />
              <mxPoint x="250" y="395" />
            </Array>
          </mxGeometry>
        </mxCell>
        <mxCell id="oQnaQG7ZyuOdrtneP2a4-78" value="print(l);" style="rounded=0;whiteSpace=wrap;html=1;" parent="1" vertex="1">
          <mxGeometry x="800" y="440" width="120" height="30" as="geometry" />
        </mxCell>
        <mxCell id="oQnaQG7ZyuOdrtneP2a4-79" value="" style="edgeStyle=orthogonalEdgeStyle;rounded=0;orthogonalLoop=1;jettySize=auto;html=1;" parent="1" edge="1">
          <mxGeometry relative="1" as="geometry">
            <mxPoint x="859.5" y="470" as="sourcePoint" />
            <mxPoint x="859.5" y="490" as="targetPoint" />
          </mxGeometry>
        </mxCell>
        <mxCell id="oQnaQG7ZyuOdrtneP2a4-80" style="edgeStyle=orthogonalEdgeStyle;rounded=0;orthogonalLoop=1;jettySize=auto;html=1;exitX=0.5;exitY=1;exitDx=0;exitDy=0;" parent="1" source="oQnaQG7ZyuOdrtneP2a4-81" edge="1">
          <mxGeometry relative="1" as="geometry">
            <mxPoint x="860.6379310344828" y="549.9999999999999" as="targetPoint" />
          </mxGeometry>
        </mxCell>
        <mxCell id="oQnaQG7ZyuOdrtneP2a4-81" value="cout &amp;lt;&amp;lt; &quot;Введите ключ&amp;nbsp;&lt;div&gt;элемента для удаления: &quot;;&lt;/div&gt;" style="shape=parallelogram;perimeter=parallelogramPerimeter;whiteSpace=wrap;html=1;fixedSize=1;" parent="1" vertex="1">
          <mxGeometry x="760" y="490" width="200" height="40" as="geometry" />
        </mxCell>
        <mxCell id="oQnaQG7ZyuOdrtneP2a4-82" value="cin &amp;gt;&amp;gt; key;" style="shape=parallelogram;perimeter=parallelogramPerimeter;whiteSpace=wrap;html=1;fixedSize=1;" parent="1" vertex="1">
          <mxGeometry x="774.5" y="550" width="170" height="40" as="geometry" />
        </mxCell>
        <mxCell id="oQnaQG7ZyuOdrtneP2a4-83" value="" style="edgeStyle=orthogonalEdgeStyle;rounded=0;orthogonalLoop=1;jettySize=auto;html=1;" parent="1" edge="1">
          <mxGeometry relative="1" as="geometry">
            <mxPoint x="860" y="610" as="targetPoint" />
            <mxPoint x="860" y="590" as="sourcePoint" />
          </mxGeometry>
        </mxCell>
        <mxCell id="oQnaQG7ZyuOdrtneP2a4-84" value="del_key(l, key);" style="rounded=0;whiteSpace=wrap;html=1;" parent="1" vertex="1">
          <mxGeometry x="800" y="610" width="120" height="30" as="geometry" />
        </mxCell>
        <mxCell id="oQnaQG7ZyuOdrtneP2a4-85" value="" style="edgeStyle=orthogonalEdgeStyle;rounded=0;orthogonalLoop=1;jettySize=auto;html=1;" parent="1" edge="1">
          <mxGeometry relative="1" as="geometry">
            <mxPoint x="860" y="640" as="sourcePoint" />
            <mxPoint x="860" y="660" as="targetPoint" />
          </mxGeometry>
        </mxCell>
        <mxCell id="oQnaQG7ZyuOdrtneP2a4-86" value="print(l);" style="rounded=0;whiteSpace=wrap;html=1;" parent="1" vertex="1">
          <mxGeometry x="799.5" y="660" width="120" height="30" as="geometry" />
        </mxCell>
        <mxCell id="oQnaQG7ZyuOdrtneP2a4-87" value="" style="edgeStyle=orthogonalEdgeStyle;rounded=0;orthogonalLoop=1;jettySize=auto;html=1;" parent="1" edge="1">
          <mxGeometry relative="1" as="geometry">
            <mxPoint x="859" y="690" as="sourcePoint" />
            <mxPoint x="859" y="710" as="targetPoint" />
          </mxGeometry>
        </mxCell>
        <mxCell id="oQnaQG7ZyuOdrtneP2a4-88" value="cout &amp;lt;&amp;lt; &quot;Введите к&lt;div&gt;ол-во элементов для вставки и перед каким&amp;nbsp;&lt;div&gt;индексом вставить&lt;div&gt;новые элементы: &quot;;&lt;/div&gt;&lt;/div&gt;&lt;/div&gt;" style="shape=parallelogram;perimeter=parallelogramPerimeter;whiteSpace=wrap;html=1;fixedSize=1;" parent="1" vertex="1">
          <mxGeometry x="740" y="710" width="240" height="80" as="geometry" />
        </mxCell>
        <mxCell id="oQnaQG7ZyuOdrtneP2a4-89" value="" style="edgeStyle=orthogonalEdgeStyle;rounded=0;orthogonalLoop=1;jettySize=auto;html=1;" parent="1" edge="1">
          <mxGeometry relative="1" as="geometry">
            <mxPoint x="859.0800000000002" y="790" as="sourcePoint" />
            <mxPoint x="859.0800000000002" y="810" as="targetPoint" />
          </mxGeometry>
        </mxCell>
        <mxCell id="oQnaQG7ZyuOdrtneP2a4-90" value="cin &amp;gt;&amp;gt; k &amp;gt;&amp;gt; index;" style="shape=parallelogram;perimeter=parallelogramPerimeter;whiteSpace=wrap;html=1;fixedSize=1;" parent="1" vertex="1">
          <mxGeometry x="760" y="810" width="200" height="40" as="geometry" />
        </mxCell>
        <mxCell id="oQnaQG7ZyuOdrtneP2a4-91" value="" style="edgeStyle=orthogonalEdgeStyle;rounded=0;orthogonalLoop=1;jettySize=auto;html=1;" parent="1" edge="1">
          <mxGeometry relative="1" as="geometry">
            <mxPoint x="859.5" y="870" as="targetPoint" />
            <mxPoint x="859.5" y="850" as="sourcePoint" />
          </mxGeometry>
        </mxCell>
        <mxCell id="oQnaQG7ZyuOdrtneP2a4-92" value="insert(l, k, index);" style="rounded=0;whiteSpace=wrap;html=1;" parent="1" vertex="1">
          <mxGeometry x="799.5" y="870" width="120" height="30" as="geometry" />
        </mxCell>
        <mxCell id="oQnaQG7ZyuOdrtneP2a4-93" value="" style="edgeStyle=orthogonalEdgeStyle;rounded=0;orthogonalLoop=1;jettySize=auto;html=1;" parent="1" edge="1">
          <mxGeometry relative="1" as="geometry">
            <mxPoint x="859.5" y="900" as="sourcePoint" />
            <mxPoint x="859.5" y="920" as="targetPoint" />
          </mxGeometry>
        </mxCell>
        <mxCell id="oQnaQG7ZyuOdrtneP2a4-94" value="print(l);" style="rounded=0;whiteSpace=wrap;html=1;" parent="1" vertex="1">
          <mxGeometry x="799" y="920" width="120" height="30" as="geometry" />
        </mxCell>
        <mxCell id="oQnaQG7ZyuOdrtneP2a4-95" value="" style="edgeStyle=orthogonalEdgeStyle;rounded=0;orthogonalLoop=1;jettySize=auto;html=1;" parent="1" edge="1">
          <mxGeometry relative="1" as="geometry">
            <mxPoint x="858.5" y="950" as="sourcePoint" />
            <mxPoint x="858.5" y="970" as="targetPoint" />
          </mxGeometry>
        </mxCell>
        <mxCell id="oQnaQG7ZyuOdrtneP2a4-96" value="FILE* fp = fopen(&quot;F1.txt&quot;, &quot;w&quot;);" style="rounded=0;whiteSpace=wrap;html=1;" parent="1" vertex="1">
          <mxGeometry x="799" y="970" width="120" height="30" as="geometry" />
        </mxCell>
        <mxCell id="oQnaQG7ZyuOdrtneP2a4-97" value="" style="edgeStyle=orthogonalEdgeStyle;rounded=0;orthogonalLoop=1;jettySize=auto;html=1;" parent="1" edge="1">
          <mxGeometry relative="1" as="geometry">
            <mxPoint x="859.5" y="1000" as="sourcePoint" />
            <mxPoint x="859.5" y="1020" as="targetPoint" />
          </mxGeometry>
        </mxCell>
        <mxCell id="oQnaQG7ZyuOdrtneP2a4-98" value="addfile(l, fp);" style="rounded=0;whiteSpace=wrap;html=1;" parent="1" vertex="1">
          <mxGeometry x="799" y="1020" width="120" height="30" as="geometry" />
        </mxCell>
        <mxCell id="oQnaQG7ZyuOdrtneP2a4-99" value="" style="edgeStyle=orthogonalEdgeStyle;rounded=0;orthogonalLoop=1;jettySize=auto;html=1;" parent="1" edge="1">
          <mxGeometry relative="1" as="geometry">
            <mxPoint x="858.5" y="1050" as="sourcePoint" />
            <mxPoint x="858.5" y="1070" as="targetPoint" />
          </mxGeometry>
        </mxCell>
        <mxCell id="oQnaQG7ZyuOdrtneP2a4-100" value="fclose(fp);" style="rounded=0;whiteSpace=wrap;html=1;" parent="1" vertex="1">
          <mxGeometry x="799" y="1070" width="120" height="30" as="geometry" />
        </mxCell>
        <mxCell id="oQnaQG7ZyuOdrtneP2a4-101" value="" style="edgeStyle=orthogonalEdgeStyle;rounded=0;orthogonalLoop=1;jettySize=auto;html=1;" parent="1" edge="1">
          <mxGeometry relative="1" as="geometry">
            <mxPoint x="859.5" y="1100" as="sourcePoint" />
            <mxPoint x="859.5" y="1120" as="targetPoint" />
          </mxGeometry>
        </mxCell>
        <mxCell id="oQnaQG7ZyuOdrtneP2a4-102" value="del_l(l);" style="rounded=0;whiteSpace=wrap;html=1;" parent="1" vertex="1">
          <mxGeometry x="799" y="1120" width="120" height="30" as="geometry" />
        </mxCell>
        <mxCell id="oQnaQG7ZyuOdrtneP2a4-103" value="" style="edgeStyle=orthogonalEdgeStyle;rounded=0;orthogonalLoop=1;jettySize=auto;html=1;" parent="1" edge="1">
          <mxGeometry relative="1" as="geometry">
            <mxPoint x="858.5" y="1150" as="sourcePoint" />
            <mxPoint x="858.5" y="1170" as="targetPoint" />
          </mxGeometry>
        </mxCell>
        <mxCell id="oQnaQG7ZyuOdrtneP2a4-104" value="print(l);" style="rounded=0;whiteSpace=wrap;html=1;" parent="1" vertex="1">
          <mxGeometry x="799" y="1230" width="120" height="30" as="geometry" />
        </mxCell>
        <mxCell id="oQnaQG7ZyuOdrtneP2a4-106" style="edgeStyle=orthogonalEdgeStyle;rounded=0;orthogonalLoop=1;jettySize=auto;html=1;exitX=0.5;exitY=1;exitDx=0;exitDy=0;" parent="1" source="oQnaQG7ZyuOdrtneP2a4-105" edge="1">
          <mxGeometry relative="1" as="geometry">
            <mxPoint x="860" y="1230.0000000000002" as="targetPoint" />
          </mxGeometry>
        </mxCell>
        <mxCell id="oQnaQG7ZyuOdrtneP2a4-105" value="cout &amp;lt;&amp;lt; &quot;Список после&amp;nbsp;&lt;div&gt;удаления: &quot;;&lt;/div&gt;" style="shape=parallelogram;perimeter=parallelogramPerimeter;whiteSpace=wrap;html=1;fixedSize=1;" parent="1" vertex="1">
          <mxGeometry x="760" y="1169" width="200" height="40" as="geometry" />
        </mxCell>
        <mxCell id="oQnaQG7ZyuOdrtneP2a4-107" value="" style="edgeStyle=orthogonalEdgeStyle;rounded=0;orthogonalLoop=1;jettySize=auto;html=1;" parent="1" edge="1">
          <mxGeometry relative="1" as="geometry">
            <mxPoint x="858.5" y="1260" as="sourcePoint" />
            <mxPoint x="858.5" y="1280" as="targetPoint" />
          </mxGeometry>
        </mxCell>
        <mxCell id="oQnaQG7ZyuOdrtneP2a4-108" value="FILE* in = fopen(&quot;F1.txt&quot;, &quot;r&quot;);" style="rounded=0;whiteSpace=wrap;html=1;" parent="1" vertex="1">
          <mxGeometry x="799" y="1280" width="120" height="30" as="geometry" />
        </mxCell>
        <mxCell id="oQnaQG7ZyuOdrtneP2a4-109" value="" style="edgeStyle=orthogonalEdgeStyle;rounded=0;orthogonalLoop=1;jettySize=auto;html=1;" parent="1" edge="1">
          <mxGeometry relative="1" as="geometry">
            <mxPoint x="859.5" y="1310" as="sourcePoint" />
            <mxPoint x="859.5" y="1330" as="targetPoint" />
          </mxGeometry>
        </mxCell>
        <mxCell id="oQnaQG7ZyuOdrtneP2a4-110" value="readfile(in, l);" style="rounded=0;whiteSpace=wrap;html=1;" parent="1" vertex="1">
          <mxGeometry x="799" y="1330" width="120" height="30" as="geometry" />
        </mxCell>
        <mxCell id="oQnaQG7ZyuOdrtneP2a4-111" value="" style="edgeStyle=orthogonalEdgeStyle;rounded=0;orthogonalLoop=1;jettySize=auto;html=1;" parent="1" edge="1">
          <mxGeometry relative="1" as="geometry">
            <mxPoint x="858.5" y="1360" as="sourcePoint" />
            <mxPoint x="858.5" y="1380" as="targetPoint" />
          </mxGeometry>
        </mxCell>
        <mxCell id="oQnaQG7ZyuOdrtneP2a4-114" value="cout &amp;lt;&amp;lt; &quot;Список после восстановления из файла: &quot;;" style="shape=parallelogram;perimeter=parallelogramPerimeter;whiteSpace=wrap;html=1;fixedSize=1;" parent="1" vertex="1">
          <mxGeometry x="760" y="1380" width="200" height="40" as="geometry" />
        </mxCell>
        <mxCell id="oQnaQG7ZyuOdrtneP2a4-115" value="" style="edgeStyle=orthogonalEdgeStyle;rounded=0;orthogonalLoop=1;jettySize=auto;html=1;" parent="1" edge="1">
          <mxGeometry relative="1" as="geometry">
            <mxPoint x="858.5" y="1420" as="sourcePoint" />
            <mxPoint x="858.5" y="1440" as="targetPoint" />
          </mxGeometry>
        </mxCell>
        <mxCell id="oQnaQG7ZyuOdrtneP2a4-116" value="print(l);" style="rounded=0;whiteSpace=wrap;html=1;" parent="1" vertex="1">
          <mxGeometry x="799" y="1440" width="120" height="30" as="geometry" />
        </mxCell>
        <mxCell id="oQnaQG7ZyuOdrtneP2a4-117" value="" style="edgeStyle=orthogonalEdgeStyle;rounded=0;orthogonalLoop=1;jettySize=auto;html=1;" parent="1" edge="1">
          <mxGeometry relative="1" as="geometry">
            <mxPoint x="859.5" y="1470" as="sourcePoint" />
            <mxPoint x="859.5" y="1490" as="targetPoint" />
          </mxGeometry>
        </mxCell>
        <mxCell id="oQnaQG7ZyuOdrtneP2a4-118" value="fclose(in);" style="rounded=0;whiteSpace=wrap;html=1;" parent="1" vertex="1">
          <mxGeometry x="799" y="1490" width="120" height="30" as="geometry" />
        </mxCell>
        <mxCell id="oQnaQG7ZyuOdrtneP2a4-119" value="" style="edgeStyle=orthogonalEdgeStyle;rounded=0;orthogonalLoop=1;jettySize=auto;html=1;" parent="1" edge="1">
          <mxGeometry relative="1" as="geometry">
            <mxPoint x="858.5" y="1520" as="sourcePoint" />
            <mxPoint x="858.5" y="1540" as="targetPoint" />
          </mxGeometry>
        </mxCell>
        <mxCell id="oQnaQG7ZyuOdrtneP2a4-120" value="return 0;" style="ellipse;whiteSpace=wrap;html=1;" parent="1" vertex="1">
          <mxGeometry x="799" y="1540" width="120" height="50" as="geometry" />
        </mxCell>
        <mxCell id="oQnaQG7ZyuOdrtneP2a4-122" style="edgeStyle=orthogonalEdgeStyle;rounded=0;orthogonalLoop=1;jettySize=auto;html=1;exitX=0.5;exitY=1;exitDx=0;exitDy=0;" parent="1" source="oQnaQG7ZyuOdrtneP2a4-121" edge="1">
          <mxGeometry relative="1" as="geometry">
            <mxPoint x="1440.2127659574467" y="160" as="targetPoint" />
          </mxGeometry>
        </mxCell>
        <mxCell id="oQnaQG7ZyuOdrtneP2a4-121" value="struct Node" style="shape=process;whiteSpace=wrap;html=1;backgroundOutline=1;" parent="1" vertex="1">
          <mxGeometry x="1380" y="110" width="120" height="30" as="geometry" />
        </mxCell>
        <mxCell id="oQnaQG7ZyuOdrtneP2a4-123" value="char data[100];" style="rounded=0;whiteSpace=wrap;html=1;" parent="1" vertex="1">
          <mxGeometry x="1380" y="160" width="120" height="30" as="geometry" />
        </mxCell>
        <mxCell id="oQnaQG7ZyuOdrtneP2a4-124" style="edgeStyle=orthogonalEdgeStyle;rounded=0;orthogonalLoop=1;jettySize=auto;html=1;exitX=0.5;exitY=1;exitDx=0;exitDy=0;" parent="1" edge="1">
          <mxGeometry relative="1" as="geometry">
            <mxPoint x="1440.2127659574467" y="210" as="targetPoint" />
            <mxPoint x="1440" y="190" as="sourcePoint" />
          </mxGeometry>
        </mxCell>
        <mxCell id="oQnaQG7ZyuOdrtneP2a4-125" value="Node* prev;" style="rounded=0;whiteSpace=wrap;html=1;" parent="1" vertex="1">
          <mxGeometry x="1380" y="210" width="120" height="30" as="geometry" />
        </mxCell>
        <mxCell id="oQnaQG7ZyuOdrtneP2a4-126" style="edgeStyle=orthogonalEdgeStyle;rounded=0;orthogonalLoop=1;jettySize=auto;html=1;exitX=0.5;exitY=1;exitDx=0;exitDy=0;" parent="1" edge="1">
          <mxGeometry relative="1" as="geometry">
            <mxPoint x="1440.2127659574467" y="260" as="targetPoint" />
            <mxPoint x="1440" y="240" as="sourcePoint" />
          </mxGeometry>
        </mxCell>
        <mxCell id="oQnaQG7ZyuOdrtneP2a4-127" value="Node* next;" style="rounded=0;whiteSpace=wrap;html=1;" parent="1" vertex="1">
          <mxGeometry x="1380" y="260" width="120" height="30" as="geometry" />
        </mxCell>
        <mxCell id="oQnaQG7ZyuOdrtneP2a4-128" style="edgeStyle=orthogonalEdgeStyle;rounded=0;orthogonalLoop=1;jettySize=auto;html=1;exitX=0.5;exitY=1;exitDx=0;exitDy=0;" parent="1" source="oQnaQG7ZyuOdrtneP2a4-129" edge="1">
          <mxGeometry relative="1" as="geometry">
            <mxPoint x="1241.2127659574467" y="160" as="targetPoint" />
          </mxGeometry>
        </mxCell>
        <mxCell id="oQnaQG7ZyuOdrtneP2a4-129" value="struct Node" style="shape=process;whiteSpace=wrap;html=1;backgroundOutline=1;" parent="1" vertex="1">
          <mxGeometry x="1181" y="110" width="120" height="30" as="geometry" />
        </mxCell>
        <mxCell id="oQnaQG7ZyuOdrtneP2a4-130" value="int size = 0;" style="rounded=0;whiteSpace=wrap;html=1;" parent="1" vertex="1">
          <mxGeometry x="1181" y="160" width="120" height="30" as="geometry" />
        </mxCell>
        <mxCell id="oQnaQG7ZyuOdrtneP2a4-131" style="edgeStyle=orthogonalEdgeStyle;rounded=0;orthogonalLoop=1;jettySize=auto;html=1;exitX=0.5;exitY=1;exitDx=0;exitDy=0;" parent="1" edge="1">
          <mxGeometry relative="1" as="geometry">
            <mxPoint x="1241.2127659574467" y="210" as="targetPoint" />
            <mxPoint x="1241" y="190" as="sourcePoint" />
          </mxGeometry>
        </mxCell>
        <mxCell id="oQnaQG7ZyuOdrtneP2a4-132" value="Node* head = nullptr;" style="rounded=0;whiteSpace=wrap;html=1;" parent="1" vertex="1">
          <mxGeometry x="1181" y="210" width="120" height="30" as="geometry" />
        </mxCell>
        <mxCell id="oQnaQG7ZyuOdrtneP2a4-133" style="edgeStyle=orthogonalEdgeStyle;rounded=0;orthogonalLoop=1;jettySize=auto;html=1;exitX=0.5;exitY=1;exitDx=0;exitDy=0;" parent="1" edge="1">
          <mxGeometry relative="1" as="geometry">
            <mxPoint x="1241.2127659574467" y="260" as="targetPoint" />
            <mxPoint x="1241" y="240" as="sourcePoint" />
          </mxGeometry>
        </mxCell>
        <mxCell id="oQnaQG7ZyuOdrtneP2a4-134" value="Node* tail = nullptr;" style="rounded=0;whiteSpace=wrap;html=1;" parent="1" vertex="1">
          <mxGeometry x="1181" y="260" width="120" height="30" as="geometry" />
        </mxCell>
        <mxCell id="3R7wzzP7kjICKfFNbeku-1" value="{" style="text;html=1;align=center;verticalAlign=middle;resizable=0;points=[];autosize=1;strokeColor=none;fillColor=none;" vertex="1" parent="1">
          <mxGeometry x="365" y="168" width="30" height="30" as="geometry" />
        </mxCell>
        <mxCell id="3R7wzzP7kjICKfFNbeku-2" value="}" style="text;html=1;align=center;verticalAlign=middle;resizable=0;points=[];autosize=1;strokeColor=none;fillColor=none;" vertex="1" parent="1">
          <mxGeometry x="915" y="1578" width="30" height="30" as="geometry" />
        </mxCell>
        <mxCell id="3R7wzzP7kjICKfFNbeku-3" value="{" style="text;html=1;align=center;verticalAlign=middle;resizable=0;points=[];autosize=1;strokeColor=none;fillColor=none;" vertex="1" parent="1">
          <mxGeometry x="1155" y="138" width="30" height="30" as="geometry" />
        </mxCell>
        <mxCell id="3R7wzzP7kjICKfFNbeku-4" value="};" style="text;html=1;align=center;verticalAlign=middle;resizable=0;points=[];autosize=1;strokeColor=none;fillColor=none;" vertex="1" parent="1">
          <mxGeometry x="1285" y="290" width="30" height="30" as="geometry" />
        </mxCell>
        <mxCell id="3R7wzzP7kjICKfFNbeku-5" value="{" style="text;html=1;align=center;verticalAlign=middle;resizable=0;points=[];autosize=1;strokeColor=none;fillColor=none;" vertex="1" parent="1">
          <mxGeometry x="1365" y="138" width="30" height="30" as="geometry" />
        </mxCell>
        <mxCell id="3R7wzzP7kjICKfFNbeku-6" value="};" style="text;html=1;align=center;verticalAlign=middle;resizable=0;points=[];autosize=1;strokeColor=none;fillColor=none;" vertex="1" parent="1">
          <mxGeometry x="1435" y="288" width="30" height="30" as="geometry" />
        </mxCell>
        <mxCell id="3R7wzzP7kjICKfFNbeku-9" style="edgeStyle=orthogonalEdgeStyle;rounded=0;orthogonalLoop=1;jettySize=auto;html=1;exitX=0.5;exitY=1;exitDx=0;exitDy=0;" edge="1" parent="1" source="3R7wzzP7kjICKfFNbeku-8">
          <mxGeometry relative="1" as="geometry">
            <mxPoint x="1245" y="420" as="targetPoint" />
          </mxGeometry>
        </mxCell>
        <mxCell id="3R7wzzP7kjICKfFNbeku-8" value="void init(List&amp;amp; l)" style="shape=process;whiteSpace=wrap;html=1;backgroundOutline=1;" vertex="1" parent="1">
          <mxGeometry x="1185" y="370" width="120" height="30" as="geometry" />
        </mxCell>
        <mxCell id="3R7wzzP7kjICKfFNbeku-10" value="Node* newNode = new Node;" style="rounded=0;whiteSpace=wrap;html=1;" vertex="1" parent="1">
          <mxGeometry x="1185" y="420" width="120" height="30" as="geometry" />
        </mxCell>
        <mxCell id="3R7wzzP7kjICKfFNbeku-11" style="edgeStyle=orthogonalEdgeStyle;rounded=0;orthogonalLoop=1;jettySize=auto;html=1;exitX=0.5;exitY=1;exitDx=0;exitDy=0;" edge="1" parent="1">
          <mxGeometry relative="1" as="geometry">
            <mxPoint x="1245" y="470" as="targetPoint" />
            <mxPoint x="1245" y="450" as="sourcePoint" />
          </mxGeometry>
        </mxCell>
        <mxCell id="3R7wzzP7kjICKfFNbeku-13" style="edgeStyle=orthogonalEdgeStyle;rounded=0;orthogonalLoop=1;jettySize=auto;html=1;exitX=0.5;exitY=1;exitDx=0;exitDy=0;" edge="1" parent="1" source="3R7wzzP7kjICKfFNbeku-12">
          <mxGeometry relative="1" as="geometry">
            <mxPoint x="1244.8571428571427" y="520" as="targetPoint" />
          </mxGeometry>
        </mxCell>
        <mxCell id="3R7wzzP7kjICKfFNbeku-12" value="&lt;span style=&quot;white-space: normal;&quot;&gt;char a[100];&lt;/span&gt;" style="rounded=0;whiteSpace=wrap;html=1;" vertex="1" parent="1">
          <mxGeometry x="1195" y="470" width="100" height="30" as="geometry" />
        </mxCell>
        <mxCell id="3R7wzzP7kjICKfFNbeku-14" value="cout &amp;lt;&amp;lt; &quot;Введите строку для элемента списка: &quot;;" style="shape=parallelogram;perimeter=parallelogramPerimeter;whiteSpace=wrap;html=1;fixedSize=1;" vertex="1" parent="1">
          <mxGeometry x="1141" y="520" width="200" height="40" as="geometry" />
        </mxCell>
        <mxCell id="3R7wzzP7kjICKfFNbeku-16" style="edgeStyle=orthogonalEdgeStyle;rounded=0;orthogonalLoop=1;jettySize=auto;html=1;exitX=0.5;exitY=1;exitDx=0;exitDy=0;" edge="1" parent="1">
          <mxGeometry relative="1" as="geometry">
            <mxPoint x="1244.8571428571427" y="580" as="targetPoint" />
            <mxPoint x="1245" y="560" as="sourcePoint" />
          </mxGeometry>
        </mxCell>
        <mxCell id="3R7wzzP7kjICKfFNbeku-17" value="cin &amp;gt;&amp;gt; a;" style="shape=parallelogram;perimeter=parallelogramPerimeter;whiteSpace=wrap;html=1;fixedSize=1;" vertex="1" parent="1">
          <mxGeometry x="1141" y="580" width="200" height="40" as="geometry" />
        </mxCell>
        <mxCell id="3R7wzzP7kjICKfFNbeku-22" style="edgeStyle=orthogonalEdgeStyle;rounded=0;orthogonalLoop=1;jettySize=auto;html=1;exitX=0.5;exitY=1;exitDx=0;exitDy=0;" edge="1" parent="1">
          <mxGeometry relative="1" as="geometry">
            <mxPoint x="1241" y="640" as="targetPoint" />
            <mxPoint x="1241" y="620" as="sourcePoint" />
          </mxGeometry>
        </mxCell>
        <mxCell id="3R7wzzP7kjICKfFNbeku-23" value="strcpy_s(newNode-&amp;gt;data, a);" style="rounded=0;whiteSpace=wrap;html=1;" vertex="1" parent="1">
          <mxGeometry x="1181" y="640" width="120" height="30" as="geometry" />
        </mxCell>
        <mxCell id="3R7wzzP7kjICKfFNbeku-24" style="edgeStyle=orthogonalEdgeStyle;rounded=0;orthogonalLoop=1;jettySize=auto;html=1;exitX=0.5;exitY=1;exitDx=0;exitDy=0;" edge="1" parent="1">
          <mxGeometry relative="1" as="geometry">
            <mxPoint x="1241" y="690" as="targetPoint" />
            <mxPoint x="1241" y="670" as="sourcePoint" />
          </mxGeometry>
        </mxCell>
        <mxCell id="3R7wzzP7kjICKfFNbeku-25" style="edgeStyle=orthogonalEdgeStyle;rounded=0;orthogonalLoop=1;jettySize=auto;html=1;exitX=0.5;exitY=1;exitDx=0;exitDy=0;" edge="1" parent="1" source="3R7wzzP7kjICKfFNbeku-26">
          <mxGeometry relative="1" as="geometry">
            <mxPoint x="1240.8571428571427" y="740" as="targetPoint" />
          </mxGeometry>
        </mxCell>
        <mxCell id="3R7wzzP7kjICKfFNbeku-26" value="newNode-&gt;prev = nullptr;" style="rounded=0;whiteSpace=wrap;html=1;" vertex="1" parent="1">
          <mxGeometry x="1191" y="690" width="100" height="30" as="geometry" />
        </mxCell>
        <mxCell id="3R7wzzP7kjICKfFNbeku-27" style="edgeStyle=orthogonalEdgeStyle;rounded=0;orthogonalLoop=1;jettySize=auto;html=1;exitX=0.5;exitY=1;exitDx=0;exitDy=0;" edge="1" parent="1">
          <mxGeometry relative="1" as="geometry">
            <mxPoint x="1241" y="740" as="targetPoint" />
            <mxPoint x="1241" y="720" as="sourcePoint" />
          </mxGeometry>
        </mxCell>
        <mxCell id="3R7wzzP7kjICKfFNbeku-28" value="newNode-&amp;gt;next = nullptr;" style="rounded=0;whiteSpace=wrap;html=1;" vertex="1" parent="1">
          <mxGeometry x="1181" y="740" width="120" height="30" as="geometry" />
        </mxCell>
        <mxCell id="3R7wzzP7kjICKfFNbeku-29" style="edgeStyle=orthogonalEdgeStyle;rounded=0;orthogonalLoop=1;jettySize=auto;html=1;exitX=0.5;exitY=1;exitDx=0;exitDy=0;" edge="1" parent="1">
          <mxGeometry relative="1" as="geometry">
            <mxPoint x="1241" y="790" as="targetPoint" />
            <mxPoint x="1241" y="770" as="sourcePoint" />
          </mxGeometry>
        </mxCell>
        <mxCell id="3R7wzzP7kjICKfFNbeku-30" style="edgeStyle=orthogonalEdgeStyle;rounded=0;orthogonalLoop=1;jettySize=auto;html=1;exitX=0.5;exitY=1;exitDx=0;exitDy=0;" edge="1" parent="1" source="3R7wzzP7kjICKfFNbeku-31">
          <mxGeometry relative="1" as="geometry">
            <mxPoint x="1240.8571428571427" y="840" as="targetPoint" />
          </mxGeometry>
        </mxCell>
        <mxCell id="3R7wzzP7kjICKfFNbeku-31" value="l.head = newNode;" style="rounded=0;whiteSpace=wrap;html=1;" vertex="1" parent="1">
          <mxGeometry x="1191" y="790" width="100" height="30" as="geometry" />
        </mxCell>
        <mxCell id="3R7wzzP7kjICKfFNbeku-33" style="edgeStyle=orthogonalEdgeStyle;rounded=0;orthogonalLoop=1;jettySize=auto;html=1;exitX=0.5;exitY=1;exitDx=0;exitDy=0;" edge="1" parent="1">
          <mxGeometry relative="1" as="geometry">
            <mxPoint x="1241" y="840" as="targetPoint" />
            <mxPoint x="1241" y="820" as="sourcePoint" />
          </mxGeometry>
        </mxCell>
        <mxCell id="3R7wzzP7kjICKfFNbeku-34" style="edgeStyle=orthogonalEdgeStyle;rounded=0;orthogonalLoop=1;jettySize=auto;html=1;exitX=0.5;exitY=1;exitDx=0;exitDy=0;" edge="1" parent="1" source="3R7wzzP7kjICKfFNbeku-35">
          <mxGeometry relative="1" as="geometry">
            <mxPoint x="1240.8571428571427" y="890" as="targetPoint" />
          </mxGeometry>
        </mxCell>
        <mxCell id="3R7wzzP7kjICKfFNbeku-35" value="l.tail = newNode;" style="rounded=0;whiteSpace=wrap;html=1;" vertex="1" parent="1">
          <mxGeometry x="1191" y="840" width="100" height="30" as="geometry" />
        </mxCell>
        <mxCell id="3R7wzzP7kjICKfFNbeku-36" style="edgeStyle=orthogonalEdgeStyle;rounded=0;orthogonalLoop=1;jettySize=auto;html=1;exitX=0.5;exitY=1;exitDx=0;exitDy=0;" edge="1" parent="1">
          <mxGeometry relative="1" as="geometry">
            <mxPoint x="1241" y="890" as="targetPoint" />
            <mxPoint x="1241" y="870" as="sourcePoint" />
          </mxGeometry>
        </mxCell>
        <mxCell id="3R7wzzP7kjICKfFNbeku-37" value="l.size++;" style="rounded=0;whiteSpace=wrap;html=1;" vertex="1" parent="1">
          <mxGeometry x="1181" y="890" width="120" height="30" as="geometry" />
        </mxCell>
        <mxCell id="3R7wzzP7kjICKfFNbeku-38" style="edgeStyle=orthogonalEdgeStyle;rounded=0;orthogonalLoop=1;jettySize=auto;html=1;exitX=0.5;exitY=1;exitDx=0;exitDy=0;" edge="1" parent="1">
          <mxGeometry relative="1" as="geometry">
            <mxPoint x="1241" y="940" as="targetPoint" />
            <mxPoint x="1241" y="920" as="sourcePoint" />
          </mxGeometry>
        </mxCell>
        <mxCell id="3R7wzzP7kjICKfFNbeku-41" value="return;" style="ellipse;whiteSpace=wrap;html=1;" vertex="1" parent="1">
          <mxGeometry x="1181" y="940" width="120" height="40" as="geometry" />
        </mxCell>
        <mxCell id="3R7wzzP7kjICKfFNbeku-42" style="edgeStyle=orthogonalEdgeStyle;rounded=0;orthogonalLoop=1;jettySize=auto;html=1;exitX=0.5;exitY=1;exitDx=0;exitDy=0;" edge="1" parent="1" source="3R7wzzP7kjICKfFNbeku-43">
          <mxGeometry relative="1" as="geometry">
            <mxPoint x="1539" y="420" as="targetPoint" />
          </mxGeometry>
        </mxCell>
        <mxCell id="3R7wzzP7kjICKfFNbeku-43" value="void addEnd(List&amp;amp; l)" style="shape=process;whiteSpace=wrap;html=1;backgroundOutline=1;" vertex="1" parent="1">
          <mxGeometry x="1479" y="370" width="120" height="30" as="geometry" />
        </mxCell>
        <mxCell id="3R7wzzP7kjICKfFNbeku-44" value="Node* newNode = new Node;" style="rounded=0;whiteSpace=wrap;html=1;" vertex="1" parent="1">
          <mxGeometry x="1479" y="420" width="120" height="30" as="geometry" />
        </mxCell>
        <mxCell id="3R7wzzP7kjICKfFNbeku-45" style="edgeStyle=orthogonalEdgeStyle;rounded=0;orthogonalLoop=1;jettySize=auto;html=1;exitX=0.5;exitY=1;exitDx=0;exitDy=0;" edge="1" parent="1">
          <mxGeometry relative="1" as="geometry">
            <mxPoint x="1539" y="470" as="targetPoint" />
            <mxPoint x="1539" y="450" as="sourcePoint" />
          </mxGeometry>
        </mxCell>
        <mxCell id="3R7wzzP7kjICKfFNbeku-46" style="edgeStyle=orthogonalEdgeStyle;rounded=0;orthogonalLoop=1;jettySize=auto;html=1;exitX=0.5;exitY=1;exitDx=0;exitDy=0;" edge="1" parent="1" source="3R7wzzP7kjICKfFNbeku-47">
          <mxGeometry relative="1" as="geometry">
            <mxPoint x="1538.8571428571427" y="520" as="targetPoint" />
          </mxGeometry>
        </mxCell>
        <mxCell id="3R7wzzP7kjICKfFNbeku-47" value="&lt;span style=&quot;white-space: normal;&quot;&gt;char a[100];&lt;/span&gt;" style="rounded=0;whiteSpace=wrap;html=1;" vertex="1" parent="1">
          <mxGeometry x="1489" y="470" width="100" height="30" as="geometry" />
        </mxCell>
        <mxCell id="3R7wzzP7kjICKfFNbeku-48" value="cout &amp;lt;&amp;lt; &quot;Введите строку для добавления элемента списка в конец: &quot;;" style="shape=parallelogram;perimeter=parallelogramPerimeter;whiteSpace=wrap;html=1;fixedSize=1;" vertex="1" parent="1">
          <mxGeometry x="1435" y="520" width="200" height="40" as="geometry" />
        </mxCell>
        <mxCell id="3R7wzzP7kjICKfFNbeku-49" style="edgeStyle=orthogonalEdgeStyle;rounded=0;orthogonalLoop=1;jettySize=auto;html=1;exitX=0.5;exitY=1;exitDx=0;exitDy=0;" edge="1" parent="1">
          <mxGeometry relative="1" as="geometry">
            <mxPoint x="1538.8571428571427" y="580" as="targetPoint" />
            <mxPoint x="1539" y="560" as="sourcePoint" />
          </mxGeometry>
        </mxCell>
        <mxCell id="3R7wzzP7kjICKfFNbeku-50" value="cin &amp;gt;&amp;gt; a;" style="shape=parallelogram;perimeter=parallelogramPerimeter;whiteSpace=wrap;html=1;fixedSize=1;" vertex="1" parent="1">
          <mxGeometry x="1435" y="580" width="200" height="40" as="geometry" />
        </mxCell>
        <mxCell id="3R7wzzP7kjICKfFNbeku-51" style="edgeStyle=orthogonalEdgeStyle;rounded=0;orthogonalLoop=1;jettySize=auto;html=1;exitX=0.5;exitY=1;exitDx=0;exitDy=0;" edge="1" parent="1">
          <mxGeometry relative="1" as="geometry">
            <mxPoint x="1535" y="640" as="targetPoint" />
            <mxPoint x="1535" y="620" as="sourcePoint" />
          </mxGeometry>
        </mxCell>
        <mxCell id="3R7wzzP7kjICKfFNbeku-52" value="strcpy_s(newNode-&amp;gt;data, a);" style="rounded=0;whiteSpace=wrap;html=1;" vertex="1" parent="1">
          <mxGeometry x="1475" y="640" width="120" height="30" as="geometry" />
        </mxCell>
        <mxCell id="3R7wzzP7kjICKfFNbeku-53" style="edgeStyle=orthogonalEdgeStyle;rounded=0;orthogonalLoop=1;jettySize=auto;html=1;exitX=0.5;exitY=1;exitDx=0;exitDy=0;" edge="1" parent="1">
          <mxGeometry relative="1" as="geometry">
            <mxPoint x="1535" y="690" as="targetPoint" />
            <mxPoint x="1535" y="670" as="sourcePoint" />
          </mxGeometry>
        </mxCell>
        <mxCell id="3R7wzzP7kjICKfFNbeku-54" style="edgeStyle=orthogonalEdgeStyle;rounded=0;orthogonalLoop=1;jettySize=auto;html=1;exitX=0.5;exitY=1;exitDx=0;exitDy=0;" edge="1" parent="1" source="3R7wzzP7kjICKfFNbeku-55">
          <mxGeometry relative="1" as="geometry">
            <mxPoint x="1534.8571428571427" y="740" as="targetPoint" />
          </mxGeometry>
        </mxCell>
        <mxCell id="3R7wzzP7kjICKfFNbeku-55" value="newNode-&amp;gt;next = nullptr;" style="rounded=0;whiteSpace=wrap;html=1;" vertex="1" parent="1">
          <mxGeometry x="1485" y="690" width="100" height="30" as="geometry" />
        </mxCell>
        <mxCell id="3R7wzzP7kjICKfFNbeku-56" style="edgeStyle=orthogonalEdgeStyle;rounded=0;orthogonalLoop=1;jettySize=auto;html=1;exitX=0.5;exitY=1;exitDx=0;exitDy=0;" edge="1" parent="1">
          <mxGeometry relative="1" as="geometry">
            <mxPoint x="1535" y="740" as="targetPoint" />
            <mxPoint x="1535" y="720" as="sourcePoint" />
          </mxGeometry>
        </mxCell>
        <mxCell id="3R7wzzP7kjICKfFNbeku-57" value="newNode-&amp;gt;prev = l.tail;" style="rounded=0;whiteSpace=wrap;html=1;" vertex="1" parent="1">
          <mxGeometry x="1475" y="740" width="120" height="30" as="geometry" />
        </mxCell>
        <mxCell id="3R7wzzP7kjICKfFNbeku-58" style="edgeStyle=orthogonalEdgeStyle;rounded=0;orthogonalLoop=1;jettySize=auto;html=1;exitX=0.5;exitY=1;exitDx=0;exitDy=0;" edge="1" parent="1">
          <mxGeometry relative="1" as="geometry">
            <mxPoint x="1535" y="790" as="targetPoint" />
            <mxPoint x="1535" y="770" as="sourcePoint" />
          </mxGeometry>
        </mxCell>
        <mxCell id="3R7wzzP7kjICKfFNbeku-59" style="edgeStyle=orthogonalEdgeStyle;rounded=0;orthogonalLoop=1;jettySize=auto;html=1;exitX=0.5;exitY=1;exitDx=0;exitDy=0;" edge="1" parent="1" source="3R7wzzP7kjICKfFNbeku-60">
          <mxGeometry relative="1" as="geometry">
            <mxPoint x="1534.8571428571427" y="840" as="targetPoint" />
          </mxGeometry>
        </mxCell>
        <mxCell id="3R7wzzP7kjICKfFNbeku-60" value="l.tail-&amp;gt;next = newNode;" style="rounded=0;whiteSpace=wrap;html=1;" vertex="1" parent="1">
          <mxGeometry x="1485" y="790" width="100" height="30" as="geometry" />
        </mxCell>
        <mxCell id="3R7wzzP7kjICKfFNbeku-61" style="edgeStyle=orthogonalEdgeStyle;rounded=0;orthogonalLoop=1;jettySize=auto;html=1;exitX=0.5;exitY=1;exitDx=0;exitDy=0;" edge="1" parent="1">
          <mxGeometry relative="1" as="geometry">
            <mxPoint x="1535" y="840" as="targetPoint" />
            <mxPoint x="1535" y="820" as="sourcePoint" />
          </mxGeometry>
        </mxCell>
        <mxCell id="3R7wzzP7kjICKfFNbeku-62" style="edgeStyle=orthogonalEdgeStyle;rounded=0;orthogonalLoop=1;jettySize=auto;html=1;exitX=0.5;exitY=1;exitDx=0;exitDy=0;" edge="1" parent="1" source="3R7wzzP7kjICKfFNbeku-63">
          <mxGeometry relative="1" as="geometry">
            <mxPoint x="1534.8571428571427" y="890" as="targetPoint" />
          </mxGeometry>
        </mxCell>
        <mxCell id="3R7wzzP7kjICKfFNbeku-63" value="l.tail = newNode;" style="rounded=0;whiteSpace=wrap;html=1;" vertex="1" parent="1">
          <mxGeometry x="1485" y="840" width="100" height="30" as="geometry" />
        </mxCell>
        <mxCell id="3R7wzzP7kjICKfFNbeku-64" style="edgeStyle=orthogonalEdgeStyle;rounded=0;orthogonalLoop=1;jettySize=auto;html=1;exitX=0.5;exitY=1;exitDx=0;exitDy=0;" edge="1" parent="1">
          <mxGeometry relative="1" as="geometry">
            <mxPoint x="1535" y="890" as="targetPoint" />
            <mxPoint x="1535" y="870" as="sourcePoint" />
          </mxGeometry>
        </mxCell>
        <mxCell id="3R7wzzP7kjICKfFNbeku-65" value="l.size++;" style="rounded=0;whiteSpace=wrap;html=1;" vertex="1" parent="1">
          <mxGeometry x="1475" y="890" width="120" height="30" as="geometry" />
        </mxCell>
        <mxCell id="3R7wzzP7kjICKfFNbeku-66" style="edgeStyle=orthogonalEdgeStyle;rounded=0;orthogonalLoop=1;jettySize=auto;html=1;exitX=0.5;exitY=1;exitDx=0;exitDy=0;" edge="1" parent="1">
          <mxGeometry relative="1" as="geometry">
            <mxPoint x="1535" y="940" as="targetPoint" />
            <mxPoint x="1535" y="920" as="sourcePoint" />
          </mxGeometry>
        </mxCell>
        <mxCell id="3R7wzzP7kjICKfFNbeku-67" value="return;" style="ellipse;whiteSpace=wrap;html=1;" vertex="1" parent="1">
          <mxGeometry x="1475" y="940" width="120" height="40" as="geometry" />
        </mxCell>
        <mxCell id="3R7wzzP7kjICKfFNbeku-69" style="edgeStyle=orthogonalEdgeStyle;rounded=0;orthogonalLoop=1;jettySize=auto;html=1;exitX=0.5;exitY=1;exitDx=0;exitDy=0;" edge="1" parent="1" source="3R7wzzP7kjICKfFNbeku-70">
          <mxGeometry relative="1" as="geometry">
            <mxPoint x="1784" y="420" as="targetPoint" />
          </mxGeometry>
        </mxCell>
        <mxCell id="3R7wzzP7kjICKfFNbeku-70" value="void addStart(List&amp;amp; l)" style="shape=process;whiteSpace=wrap;html=1;backgroundOutline=1;" vertex="1" parent="1">
          <mxGeometry x="1724" y="370" width="120" height="30" as="geometry" />
        </mxCell>
        <mxCell id="3R7wzzP7kjICKfFNbeku-71" value="Node* newNode = new Node;" style="rounded=0;whiteSpace=wrap;html=1;" vertex="1" parent="1">
          <mxGeometry x="1724" y="420" width="120" height="30" as="geometry" />
        </mxCell>
        <mxCell id="3R7wzzP7kjICKfFNbeku-72" style="edgeStyle=orthogonalEdgeStyle;rounded=0;orthogonalLoop=1;jettySize=auto;html=1;exitX=0.5;exitY=1;exitDx=0;exitDy=0;" edge="1" parent="1">
          <mxGeometry relative="1" as="geometry">
            <mxPoint x="1784" y="470" as="targetPoint" />
            <mxPoint x="1784" y="450" as="sourcePoint" />
          </mxGeometry>
        </mxCell>
        <mxCell id="3R7wzzP7kjICKfFNbeku-73" style="edgeStyle=orthogonalEdgeStyle;rounded=0;orthogonalLoop=1;jettySize=auto;html=1;exitX=0.5;exitY=1;exitDx=0;exitDy=0;" edge="1" parent="1" source="3R7wzzP7kjICKfFNbeku-74">
          <mxGeometry relative="1" as="geometry">
            <mxPoint x="1783.8571428571427" y="520" as="targetPoint" />
          </mxGeometry>
        </mxCell>
        <mxCell id="3R7wzzP7kjICKfFNbeku-74" value="&lt;span style=&quot;white-space: normal;&quot;&gt;char a[100];&lt;/span&gt;" style="rounded=0;whiteSpace=wrap;html=1;" vertex="1" parent="1">
          <mxGeometry x="1734" y="470" width="100" height="30" as="geometry" />
        </mxCell>
        <mxCell id="3R7wzzP7kjICKfFNbeku-75" value="cout &amp;lt;&amp;lt; &quot;Введите строку для добавления элемента списка в конец: &quot;;" style="shape=parallelogram;perimeter=parallelogramPerimeter;whiteSpace=wrap;html=1;fixedSize=1;" vertex="1" parent="1">
          <mxGeometry x="1680" y="520" width="200" height="40" as="geometry" />
        </mxCell>
        <mxCell id="3R7wzzP7kjICKfFNbeku-76" style="edgeStyle=orthogonalEdgeStyle;rounded=0;orthogonalLoop=1;jettySize=auto;html=1;exitX=0.5;exitY=1;exitDx=0;exitDy=0;" edge="1" parent="1">
          <mxGeometry relative="1" as="geometry">
            <mxPoint x="1783.8571428571427" y="580" as="targetPoint" />
            <mxPoint x="1784" y="560" as="sourcePoint" />
          </mxGeometry>
        </mxCell>
        <mxCell id="3R7wzzP7kjICKfFNbeku-77" value="cin &amp;gt;&amp;gt; a;" style="shape=parallelogram;perimeter=parallelogramPerimeter;whiteSpace=wrap;html=1;fixedSize=1;" vertex="1" parent="1">
          <mxGeometry x="1680" y="580" width="200" height="40" as="geometry" />
        </mxCell>
        <mxCell id="3R7wzzP7kjICKfFNbeku-78" style="edgeStyle=orthogonalEdgeStyle;rounded=0;orthogonalLoop=1;jettySize=auto;html=1;exitX=0.5;exitY=1;exitDx=0;exitDy=0;" edge="1" parent="1">
          <mxGeometry relative="1" as="geometry">
            <mxPoint x="1780" y="640" as="targetPoint" />
            <mxPoint x="1780" y="620" as="sourcePoint" />
          </mxGeometry>
        </mxCell>
        <mxCell id="3R7wzzP7kjICKfFNbeku-79" value="strcpy_s(newNode-&amp;gt;data, a);" style="rounded=0;whiteSpace=wrap;html=1;" vertex="1" parent="1">
          <mxGeometry x="1720" y="640" width="120" height="30" as="geometry" />
        </mxCell>
        <mxCell id="3R7wzzP7kjICKfFNbeku-80" style="edgeStyle=orthogonalEdgeStyle;rounded=0;orthogonalLoop=1;jettySize=auto;html=1;exitX=0.5;exitY=1;exitDx=0;exitDy=0;" edge="1" parent="1">
          <mxGeometry relative="1" as="geometry">
            <mxPoint x="1780" y="690" as="targetPoint" />
            <mxPoint x="1780" y="670" as="sourcePoint" />
          </mxGeometry>
        </mxCell>
        <mxCell id="3R7wzzP7kjICKfFNbeku-81" style="edgeStyle=orthogonalEdgeStyle;rounded=0;orthogonalLoop=1;jettySize=auto;html=1;exitX=0.5;exitY=1;exitDx=0;exitDy=0;" edge="1" parent="1" source="3R7wzzP7kjICKfFNbeku-82">
          <mxGeometry relative="1" as="geometry">
            <mxPoint x="1779.8571428571427" y="740" as="targetPoint" />
          </mxGeometry>
        </mxCell>
        <mxCell id="3R7wzzP7kjICKfFNbeku-82" value="newNode-&amp;gt;next = l.head;" style="rounded=0;whiteSpace=wrap;html=1;" vertex="1" parent="1">
          <mxGeometry x="1730" y="690" width="100" height="30" as="geometry" />
        </mxCell>
        <mxCell id="3R7wzzP7kjICKfFNbeku-83" style="edgeStyle=orthogonalEdgeStyle;rounded=0;orthogonalLoop=1;jettySize=auto;html=1;exitX=0.5;exitY=1;exitDx=0;exitDy=0;" edge="1" parent="1">
          <mxGeometry relative="1" as="geometry">
            <mxPoint x="1780" y="740" as="targetPoint" />
            <mxPoint x="1780" y="720" as="sourcePoint" />
          </mxGeometry>
        </mxCell>
        <mxCell id="3R7wzzP7kjICKfFNbeku-84" value="newNode-&amp;gt;prev = nullptr;" style="rounded=0;whiteSpace=wrap;html=1;" vertex="1" parent="1">
          <mxGeometry x="1720" y="740" width="120" height="30" as="geometry" />
        </mxCell>
        <mxCell id="3R7wzzP7kjICKfFNbeku-85" style="edgeStyle=orthogonalEdgeStyle;rounded=0;orthogonalLoop=1;jettySize=auto;html=1;exitX=0.5;exitY=1;exitDx=0;exitDy=0;" edge="1" parent="1">
          <mxGeometry relative="1" as="geometry">
            <mxPoint x="1780" y="790" as="targetPoint" />
            <mxPoint x="1780" y="770" as="sourcePoint" />
          </mxGeometry>
        </mxCell>
        <mxCell id="3R7wzzP7kjICKfFNbeku-86" style="edgeStyle=orthogonalEdgeStyle;rounded=0;orthogonalLoop=1;jettySize=auto;html=1;exitX=0.5;exitY=1;exitDx=0;exitDy=0;" edge="1" parent="1" source="3R7wzzP7kjICKfFNbeku-87">
          <mxGeometry relative="1" as="geometry">
            <mxPoint x="1779.8571428571427" y="840" as="targetPoint" />
          </mxGeometry>
        </mxCell>
        <mxCell id="3R7wzzP7kjICKfFNbeku-87" value="l.head-&amp;gt;prev = newNode;" style="rounded=0;whiteSpace=wrap;html=1;" vertex="1" parent="1">
          <mxGeometry x="1730" y="790" width="100" height="30" as="geometry" />
        </mxCell>
        <mxCell id="3R7wzzP7kjICKfFNbeku-88" style="edgeStyle=orthogonalEdgeStyle;rounded=0;orthogonalLoop=1;jettySize=auto;html=1;exitX=0.5;exitY=1;exitDx=0;exitDy=0;" edge="1" parent="1">
          <mxGeometry relative="1" as="geometry">
            <mxPoint x="1780" y="840" as="targetPoint" />
            <mxPoint x="1780" y="820" as="sourcePoint" />
          </mxGeometry>
        </mxCell>
        <mxCell id="3R7wzzP7kjICKfFNbeku-89" style="edgeStyle=orthogonalEdgeStyle;rounded=0;orthogonalLoop=1;jettySize=auto;html=1;exitX=0.5;exitY=1;exitDx=0;exitDy=0;" edge="1" parent="1" source="3R7wzzP7kjICKfFNbeku-90">
          <mxGeometry relative="1" as="geometry">
            <mxPoint x="1779.8571428571427" y="890" as="targetPoint" />
          </mxGeometry>
        </mxCell>
        <mxCell id="3R7wzzP7kjICKfFNbeku-90" value="l.head = newNode;" style="rounded=0;whiteSpace=wrap;html=1;" vertex="1" parent="1">
          <mxGeometry x="1730" y="840" width="100" height="30" as="geometry" />
        </mxCell>
        <mxCell id="3R7wzzP7kjICKfFNbeku-91" style="edgeStyle=orthogonalEdgeStyle;rounded=0;orthogonalLoop=1;jettySize=auto;html=1;exitX=0.5;exitY=1;exitDx=0;exitDy=0;" edge="1" parent="1">
          <mxGeometry relative="1" as="geometry">
            <mxPoint x="1780" y="890" as="targetPoint" />
            <mxPoint x="1780" y="870" as="sourcePoint" />
          </mxGeometry>
        </mxCell>
        <mxCell id="3R7wzzP7kjICKfFNbeku-92" value="l.size++;" style="rounded=0;whiteSpace=wrap;html=1;" vertex="1" parent="1">
          <mxGeometry x="1720" y="890" width="120" height="30" as="geometry" />
        </mxCell>
        <mxCell id="3R7wzzP7kjICKfFNbeku-93" style="edgeStyle=orthogonalEdgeStyle;rounded=0;orthogonalLoop=1;jettySize=auto;html=1;exitX=0.5;exitY=1;exitDx=0;exitDy=0;" edge="1" parent="1">
          <mxGeometry relative="1" as="geometry">
            <mxPoint x="1780" y="940" as="targetPoint" />
            <mxPoint x="1780" y="920" as="sourcePoint" />
          </mxGeometry>
        </mxCell>
        <mxCell id="3R7wzzP7kjICKfFNbeku-94" value="return;" style="ellipse;whiteSpace=wrap;html=1;" vertex="1" parent="1">
          <mxGeometry x="1720" y="940" width="120" height="40" as="geometry" />
        </mxCell>
        <mxCell id="3R7wzzP7kjICKfFNbeku-95" style="edgeStyle=orthogonalEdgeStyle;rounded=0;orthogonalLoop=1;jettySize=auto;html=1;exitX=0.5;exitY=1;exitDx=0;exitDy=0;" edge="1" parent="1" source="3R7wzzP7kjICKfFNbeku-96">
          <mxGeometry relative="1" as="geometry">
            <mxPoint x="2290" y="420" as="targetPoint" />
          </mxGeometry>
        </mxCell>
        <mxCell id="3R7wzzP7kjICKfFNbeku-96" value="void del_key(List&amp;amp; l, const char* key)" style="shape=process;whiteSpace=wrap;html=1;backgroundOutline=1;" vertex="1" parent="1">
          <mxGeometry x="2230" y="350" width="120" height="50" as="geometry" />
        </mxCell>
        <mxCell id="3R7wzzP7kjICKfFNbeku-97" value="Node* temp = l.head;" style="rounded=0;whiteSpace=wrap;html=1;" vertex="1" parent="1">
          <mxGeometry x="2230" y="420" width="120" height="30" as="geometry" />
        </mxCell>
        <mxCell id="3R7wzzP7kjICKfFNbeku-98" style="edgeStyle=orthogonalEdgeStyle;rounded=0;orthogonalLoop=1;jettySize=auto;html=1;exitX=0.5;exitY=1;exitDx=0;exitDy=0;" edge="1" parent="1">
          <mxGeometry relative="1" as="geometry">
            <mxPoint x="2290" y="470" as="targetPoint" />
            <mxPoint x="2290" y="450" as="sourcePoint" />
          </mxGeometry>
        </mxCell>
        <mxCell id="3R7wzzP7kjICKfFNbeku-102" style="edgeStyle=orthogonalEdgeStyle;rounded=0;orthogonalLoop=1;jettySize=auto;html=1;exitX=0.5;exitY=1;exitDx=0;exitDy=0;" edge="1" parent="1" source="3R7wzzP7kjICKfFNbeku-101">
          <mxGeometry relative="1" as="geometry">
            <mxPoint x="2289.9310344827586" y="580" as="targetPoint" />
          </mxGeometry>
        </mxCell>
        <mxCell id="3R7wzzP7kjICKfFNbeku-150" style="edgeStyle=orthogonalEdgeStyle;rounded=0;orthogonalLoop=1;jettySize=auto;html=1;exitX=1;exitY=0.5;exitDx=0;exitDy=0;" edge="1" parent="1" source="3R7wzzP7kjICKfFNbeku-101">
          <mxGeometry relative="1" as="geometry">
            <mxPoint x="2510" y="570" as="targetPoint" />
          </mxGeometry>
        </mxCell>
        <mxCell id="3R7wzzP7kjICKfFNbeku-101" value="while (temp != nullptr)" style="rhombus;whiteSpace=wrap;html=1;" vertex="1" parent="1">
          <mxGeometry x="2200" y="470" width="180" height="80" as="geometry" />
        </mxCell>
        <mxCell id="3R7wzzP7kjICKfFNbeku-103" value="Node* nextNode = temp-&amp;gt;next;" style="rounded=0;whiteSpace=wrap;html=1;" vertex="1" parent="1">
          <mxGeometry x="2230" y="580" width="120" height="30" as="geometry" />
        </mxCell>
        <mxCell id="3R7wzzP7kjICKfFNbeku-114" value="" style="edgeStyle=orthogonalEdgeStyle;rounded=0;orthogonalLoop=1;jettySize=auto;html=1;" edge="1" parent="1">
          <mxGeometry relative="1" as="geometry">
            <mxPoint x="2293.7028571428573" y="610.0000000000001" as="sourcePoint" />
            <mxPoint x="2293.942857142857" y="630.0000000000001" as="targetPoint" />
          </mxGeometry>
        </mxCell>
        <mxCell id="3R7wzzP7kjICKfFNbeku-115" value="" style="edgeStyle=orthogonalEdgeStyle;rounded=0;orthogonalLoop=1;jettySize=auto;html=1;" edge="1" parent="1">
          <mxGeometry relative="1" as="geometry">
            <mxPoint x="2293.942857142857" y="610.0000000000001" as="sourcePoint" />
            <mxPoint x="2293.942857142857" y="630.0000000000001" as="targetPoint" />
          </mxGeometry>
        </mxCell>
        <mxCell id="3R7wzzP7kjICKfFNbeku-116" style="edgeStyle=orthogonalEdgeStyle;rounded=0;orthogonalLoop=1;jettySize=auto;html=1;exitX=0;exitY=0.5;exitDx=0;exitDy=0;" edge="1" source="3R7wzzP7kjICKfFNbeku-118" parent="1">
          <mxGeometry relative="1" as="geometry">
            <mxPoint x="2150" y="720.0000000000001" as="targetPoint" />
          </mxGeometry>
        </mxCell>
        <mxCell id="3R7wzzP7kjICKfFNbeku-117" style="edgeStyle=orthogonalEdgeStyle;rounded=0;orthogonalLoop=1;jettySize=auto;html=1;exitX=1;exitY=0.5;exitDx=0;exitDy=0;" edge="1" source="3R7wzzP7kjICKfFNbeku-118" parent="1">
          <mxGeometry relative="1" as="geometry">
            <mxPoint x="2310" y="1110" as="targetPoint" />
            <Array as="points">
              <mxPoint x="2380" y="670" />
              <mxPoint x="2380" y="1110" />
            </Array>
          </mxGeometry>
        </mxCell>
        <mxCell id="3R7wzzP7kjICKfFNbeku-118" value="&lt;font style=&quot;font-size: 10px;&quot;&gt;if (strcmp(temp-&amp;gt;&lt;/font&gt;&lt;div&gt;&lt;font style=&quot;font-size: 10px;&quot;&gt;data, key) == 0)&lt;/font&gt;&lt;/div&gt;" style="rhombus;whiteSpace=wrap;html=1;" vertex="1" parent="1">
          <mxGeometry x="2230" y="630.0000000000001" width="130" height="80" as="geometry" />
        </mxCell>
        <mxCell id="3R7wzzP7kjICKfFNbeku-123" value="" style="edgeStyle=orthogonalEdgeStyle;rounded=0;orthogonalLoop=1;jettySize=auto;html=1;" edge="1" parent="1">
          <mxGeometry relative="1" as="geometry">
            <mxPoint x="2163.7028571428573" y="860.0000000000001" as="sourcePoint" />
            <mxPoint x="2163.942857142857" y="880" as="targetPoint" />
          </mxGeometry>
        </mxCell>
        <mxCell id="3R7wzzP7kjICKfFNbeku-124" value="" style="edgeStyle=orthogonalEdgeStyle;rounded=0;orthogonalLoop=1;jettySize=auto;html=1;" edge="1" parent="1">
          <mxGeometry relative="1" as="geometry">
            <mxPoint x="2163.942857142857" y="860.0000000000001" as="sourcePoint" />
            <mxPoint x="2163.942857142857" y="880" as="targetPoint" />
          </mxGeometry>
        </mxCell>
        <mxCell id="3R7wzzP7kjICKfFNbeku-125" style="edgeStyle=orthogonalEdgeStyle;rounded=0;orthogonalLoop=1;jettySize=auto;html=1;exitX=0;exitY=0.5;exitDx=0;exitDy=0;" edge="1" source="3R7wzzP7kjICKfFNbeku-127" parent="1">
          <mxGeometry relative="1" as="geometry">
            <mxPoint x="2020" y="970" as="targetPoint" />
          </mxGeometry>
        </mxCell>
        <mxCell id="3R7wzzP7kjICKfFNbeku-126" style="edgeStyle=orthogonalEdgeStyle;rounded=0;orthogonalLoop=1;jettySize=auto;html=1;exitX=1;exitY=0.5;exitDx=0;exitDy=0;" edge="1" source="3R7wzzP7kjICKfFNbeku-127" parent="1">
          <mxGeometry relative="1" as="geometry">
            <mxPoint x="2320" y="970" as="targetPoint" />
          </mxGeometry>
        </mxCell>
        <mxCell id="3R7wzzP7kjICKfFNbeku-127" value="if (temp-&amp;gt;next&lt;div&gt;&amp;nbsp;!= nullptr)&lt;/div&gt;" style="rhombus;whiteSpace=wrap;html=1;" vertex="1" parent="1">
          <mxGeometry x="2100" y="880" width="130" height="80" as="geometry" />
        </mxCell>
        <mxCell id="3R7wzzP7kjICKfFNbeku-128" style="edgeStyle=orthogonalEdgeStyle;rounded=0;orthogonalLoop=1;jettySize=auto;html=1;exitX=0.5;exitY=1;exitDx=0;exitDy=0;" edge="1" source="3R7wzzP7kjICKfFNbeku-129" parent="1">
          <mxGeometry relative="1" as="geometry">
            <mxPoint x="2170" y="1020" as="targetPoint" />
            <Array as="points">
              <mxPoint x="2020" y="1020" />
            </Array>
          </mxGeometry>
        </mxCell>
        <mxCell id="3R7wzzP7kjICKfFNbeku-129" value="temp-&amp;gt;next-&amp;gt;prev = temp-&amp;gt;prev;" style="rounded=0;whiteSpace=wrap;html=1;" vertex="1" parent="1">
          <mxGeometry x="1960" y="970" width="120" height="30" as="geometry" />
        </mxCell>
        <mxCell id="3R7wzzP7kjICKfFNbeku-130" style="edgeStyle=orthogonalEdgeStyle;rounded=0;orthogonalLoop=1;jettySize=auto;html=1;exitX=0.5;exitY=1;exitDx=0;exitDy=0;" edge="1" source="3R7wzzP7kjICKfFNbeku-131" parent="1">
          <mxGeometry relative="1" as="geometry">
            <mxPoint x="2170" y="1020" as="targetPoint" />
            <Array as="points">
              <mxPoint x="2320" y="1020" />
            </Array>
          </mxGeometry>
        </mxCell>
        <mxCell id="3R7wzzP7kjICKfFNbeku-131" value="l.tail = temp-&amp;gt;prev;" style="rounded=0;whiteSpace=wrap;html=1;" vertex="1" parent="1">
          <mxGeometry x="2260" y="970" width="120" height="30" as="geometry" />
        </mxCell>
        <mxCell id="3R7wzzP7kjICKfFNbeku-132" style="edgeStyle=orthogonalEdgeStyle;rounded=0;orthogonalLoop=1;jettySize=auto;html=1;exitX=0.5;exitY=1;exitDx=0;exitDy=0;" edge="1" parent="1">
          <mxGeometry relative="1" as="geometry">
            <mxPoint x="2169.9310344827586" y="1050" as="targetPoint" />
            <mxPoint x="2170" y="1020" as="sourcePoint" />
          </mxGeometry>
        </mxCell>
        <mxCell id="3R7wzzP7kjICKfFNbeku-146" style="edgeStyle=orthogonalEdgeStyle;rounded=0;orthogonalLoop=1;jettySize=auto;html=1;exitX=0.5;exitY=1;exitDx=0;exitDy=0;" edge="1" parent="1" source="3R7wzzP7kjICKfFNbeku-133">
          <mxGeometry relative="1" as="geometry">
            <mxPoint x="2310" y="1110" as="targetPoint" />
            <Array as="points">
              <mxPoint x="2170" y="1110" />
            </Array>
          </mxGeometry>
        </mxCell>
        <mxCell id="3R7wzzP7kjICKfFNbeku-133" value="&lt;div&gt;delete temp;&lt;/div&gt;&lt;div&gt;l.size--;&lt;/div&gt;" style="rounded=0;whiteSpace=wrap;html=1;" vertex="1" parent="1">
          <mxGeometry x="2110" y="1050" width="120" height="30" as="geometry" />
        </mxCell>
        <mxCell id="3R7wzzP7kjICKfFNbeku-139" style="edgeStyle=orthogonalEdgeStyle;rounded=0;orthogonalLoop=1;jettySize=auto;html=1;exitX=0;exitY=0.5;exitDx=0;exitDy=0;" edge="1" source="3R7wzzP7kjICKfFNbeku-141" parent="1">
          <mxGeometry relative="1" as="geometry">
            <mxPoint x="2010" y="810.0000000000001" as="targetPoint" />
          </mxGeometry>
        </mxCell>
        <mxCell id="3R7wzzP7kjICKfFNbeku-140" style="edgeStyle=orthogonalEdgeStyle;rounded=0;orthogonalLoop=1;jettySize=auto;html=1;exitX=1;exitY=0.5;exitDx=0;exitDy=0;" edge="1" source="3R7wzzP7kjICKfFNbeku-141" parent="1">
          <mxGeometry relative="1" as="geometry">
            <mxPoint x="2310" y="810.0000000000001" as="targetPoint" />
          </mxGeometry>
        </mxCell>
        <mxCell id="3R7wzzP7kjICKfFNbeku-141" value="if (temp-&amp;gt;prev != nullptr)" style="rhombus;whiteSpace=wrap;html=1;" vertex="1" parent="1">
          <mxGeometry x="2090" y="720.0000000000001" width="130" height="80" as="geometry" />
        </mxCell>
        <mxCell id="3R7wzzP7kjICKfFNbeku-142" style="edgeStyle=orthogonalEdgeStyle;rounded=0;orthogonalLoop=1;jettySize=auto;html=1;exitX=0.5;exitY=1;exitDx=0;exitDy=0;" edge="1" source="3R7wzzP7kjICKfFNbeku-143" parent="1">
          <mxGeometry relative="1" as="geometry">
            <mxPoint x="2160" y="860.0000000000001" as="targetPoint" />
            <Array as="points">
              <mxPoint x="2010" y="860.0000000000001" />
            </Array>
          </mxGeometry>
        </mxCell>
        <mxCell id="3R7wzzP7kjICKfFNbeku-143" value="temp-&amp;gt;prev-&amp;gt;next = temp-&amp;gt;next;" style="rounded=0;whiteSpace=wrap;html=1;" vertex="1" parent="1">
          <mxGeometry x="1950" y="810.0000000000001" width="120" height="30" as="geometry" />
        </mxCell>
        <mxCell id="3R7wzzP7kjICKfFNbeku-144" style="edgeStyle=orthogonalEdgeStyle;rounded=0;orthogonalLoop=1;jettySize=auto;html=1;exitX=0.5;exitY=1;exitDx=0;exitDy=0;" edge="1" source="3R7wzzP7kjICKfFNbeku-145" parent="1">
          <mxGeometry relative="1" as="geometry">
            <mxPoint x="2160" y="860.0000000000001" as="targetPoint" />
            <Array as="points">
              <mxPoint x="2310" y="860.0000000000001" />
            </Array>
          </mxGeometry>
        </mxCell>
        <mxCell id="3R7wzzP7kjICKfFNbeku-145" value="l.head = temp-&amp;gt;next;" style="rounded=0;whiteSpace=wrap;html=1;" vertex="1" parent="1">
          <mxGeometry x="2250" y="810.0000000000001" width="120" height="30" as="geometry" />
        </mxCell>
        <mxCell id="3R7wzzP7kjICKfFNbeku-147" value="" style="endArrow=classic;html=1;rounded=0;" edge="1" parent="1">
          <mxGeometry width="50" height="50" relative="1" as="geometry">
            <mxPoint x="2310" y="1110" as="sourcePoint" />
            <mxPoint x="2310" y="1140" as="targetPoint" />
          </mxGeometry>
        </mxCell>
        <mxCell id="3R7wzzP7kjICKfFNbeku-149" style="edgeStyle=orthogonalEdgeStyle;rounded=0;orthogonalLoop=1;jettySize=auto;html=1;exitX=0.5;exitY=1;exitDx=0;exitDy=0;entryX=0;entryY=0.5;entryDx=0;entryDy=0;" edge="1" parent="1" source="3R7wzzP7kjICKfFNbeku-148" target="3R7wzzP7kjICKfFNbeku-101">
          <mxGeometry relative="1" as="geometry">
            <mxPoint x="2190" y="510" as="targetPoint" />
            <Array as="points">
              <mxPoint x="2310" y="1189" />
              <mxPoint x="1940" y="1189" />
              <mxPoint x="1940" y="510" />
            </Array>
          </mxGeometry>
        </mxCell>
        <mxCell id="3R7wzzP7kjICKfFNbeku-148" value="temp = nextNode;" style="rounded=0;whiteSpace=wrap;html=1;" vertex="1" parent="1">
          <mxGeometry x="2250" y="1139" width="120" height="30" as="geometry" />
        </mxCell>
        <mxCell id="3R7wzzP7kjICKfFNbeku-151" value="return;" style="ellipse;whiteSpace=wrap;html=1;" vertex="1" parent="1">
          <mxGeometry x="2450" y="570" width="120" height="50" as="geometry" />
        </mxCell>
        <mxCell id="3R7wzzP7kjICKfFNbeku-156" style="edgeStyle=orthogonalEdgeStyle;rounded=0;orthogonalLoop=1;jettySize=auto;html=1;exitX=0.5;exitY=1;exitDx=0;exitDy=0;" edge="1" parent="1" source="3R7wzzP7kjICKfFNbeku-157">
          <mxGeometry relative="1" as="geometry">
            <mxPoint x="1225" y="1210" as="targetPoint" />
          </mxGeometry>
        </mxCell>
        <mxCell id="3R7wzzP7kjICKfFNbeku-157" value="void insert(List&amp;amp; l, int k, int index)" style="shape=process;whiteSpace=wrap;html=1;backgroundOutline=1;" vertex="1" parent="1">
          <mxGeometry x="1165" y="1160" width="120" height="30" as="geometry" />
        </mxCell>
        <mxCell id="3R7wzzP7kjICKfFNbeku-158" value="Node* temp = l.head;" style="rounded=0;whiteSpace=wrap;html=1;" vertex="1" parent="1">
          <mxGeometry x="1165" y="1210" width="120" height="30" as="geometry" />
        </mxCell>
        <mxCell id="3R7wzzP7kjICKfFNbeku-159" style="edgeStyle=orthogonalEdgeStyle;rounded=0;orthogonalLoop=1;jettySize=auto;html=1;exitX=0.5;exitY=1;exitDx=0;exitDy=0;" edge="1" parent="1">
          <mxGeometry relative="1" as="geometry">
            <mxPoint x="1225" y="1260" as="targetPoint" />
            <mxPoint x="1225" y="1240" as="sourcePoint" />
          </mxGeometry>
        </mxCell>
        <mxCell id="3R7wzzP7kjICKfFNbeku-161" value="" style="edgeStyle=orthogonalEdgeStyle;rounded=0;orthogonalLoop=1;jettySize=auto;html=1;" edge="1" parent="1">
          <mxGeometry relative="1" as="geometry">
            <mxPoint x="1224.9714285714285" y="1240" as="sourcePoint" />
            <mxPoint x="1224.9714285714285" y="1260" as="targetPoint" />
          </mxGeometry>
        </mxCell>
        <mxCell id="3R7wzzP7kjICKfFNbeku-162" style="edgeStyle=orthogonalEdgeStyle;rounded=0;orthogonalLoop=1;jettySize=auto;html=1;exitX=1;exitY=0.5;exitDx=0;exitDy=0;" edge="1" source="3R7wzzP7kjICKfFNbeku-163" parent="1">
          <mxGeometry relative="1" as="geometry">
            <mxPoint x="1474.9714285714285" y="1370" as="targetPoint" />
          </mxGeometry>
        </mxCell>
        <mxCell id="3R7wzzP7kjICKfFNbeku-163" value="" style="verticalLabelPosition=bottom;verticalAlign=top;html=1;shape=hexagon;perimeter=hexagonPerimeter2;arcSize=6;size=0.11951219512195121;" vertex="1" parent="1">
          <mxGeometry x="1120.4714285714285" y="1260" width="205" height="50" as="geometry" />
        </mxCell>
        <mxCell id="3R7wzzP7kjICKfFNbeku-164" value="" style="edgeStyle=orthogonalEdgeStyle;rounded=0;orthogonalLoop=1;jettySize=auto;html=1;" edge="1" parent="1">
          <mxGeometry relative="1" as="geometry">
            <mxPoint x="1224.7314285714285" y="1310" as="sourcePoint" />
            <mxPoint x="1224.9714285714285" y="1330" as="targetPoint" />
          </mxGeometry>
        </mxCell>
        <mxCell id="3R7wzzP7kjICKfFNbeku-165" value="for (int i = 1; i &amp;lt; index; i++)" style="text;html=1;align=center;verticalAlign=middle;whiteSpace=wrap;rounded=0;" vertex="1" parent="1">
          <mxGeometry x="1164.9714285714285" y="1270" width="120" height="30" as="geometry" />
        </mxCell>
        <mxCell id="3R7wzzP7kjICKfFNbeku-166" value="" style="edgeStyle=orthogonalEdgeStyle;rounded=0;orthogonalLoop=1;jettySize=auto;html=1;entryX=0;entryY=0.5;entryDx=0;entryDy=0;" edge="1" target="3R7wzzP7kjICKfFNbeku-163" parent="1">
          <mxGeometry relative="1" as="geometry">
            <mxPoint x="1224.9714285714285" y="1360" as="sourcePoint" />
            <mxPoint x="1104.9714285714285" y="1330" as="targetPoint" />
            <Array as="points">
              <mxPoint x="1225" y="1370" />
              <mxPoint x="1101" y="1370" />
              <mxPoint x="1101" y="1285" />
            </Array>
          </mxGeometry>
        </mxCell>
        <mxCell id="3R7wzzP7kjICKfFNbeku-167" value="temp = temp-&amp;gt;next;" style="rounded=0;whiteSpace=wrap;html=1;" vertex="1" parent="1">
          <mxGeometry x="1164.9714285714285" y="1330" width="120" height="30" as="geometry" />
        </mxCell>
        <mxCell id="3R7wzzP7kjICKfFNbeku-168" value="" style="edgeStyle=orthogonalEdgeStyle;rounded=0;orthogonalLoop=1;jettySize=auto;html=1;" edge="1" parent="1">
          <mxGeometry relative="1" as="geometry">
            <mxPoint x="1475.9714285714285" y="1350" as="sourcePoint" />
            <mxPoint x="1475.9714285714285" y="1370" as="targetPoint" />
          </mxGeometry>
        </mxCell>
        <mxCell id="3R7wzzP7kjICKfFNbeku-169" style="edgeStyle=orthogonalEdgeStyle;rounded=0;orthogonalLoop=1;jettySize=auto;html=1;exitX=1;exitY=0.5;exitDx=0;exitDy=0;" edge="1" source="3R7wzzP7kjICKfFNbeku-170" parent="1">
          <mxGeometry relative="1" as="geometry">
            <mxPoint x="1725.9714285714285" y="1480" as="targetPoint" />
          </mxGeometry>
        </mxCell>
        <mxCell id="3R7wzzP7kjICKfFNbeku-170" value="" style="verticalLabelPosition=bottom;verticalAlign=top;html=1;shape=hexagon;perimeter=hexagonPerimeter2;arcSize=6;size=0.11951219512195121;" vertex="1" parent="1">
          <mxGeometry x="1371.4714285714285" y="1370" width="205" height="50" as="geometry" />
        </mxCell>
        <mxCell id="3R7wzzP7kjICKfFNbeku-171" value="" style="edgeStyle=orthogonalEdgeStyle;rounded=0;orthogonalLoop=1;jettySize=auto;html=1;" edge="1" parent="1">
          <mxGeometry relative="1" as="geometry">
            <mxPoint x="1475.7314285714285" y="1420" as="sourcePoint" />
            <mxPoint x="1475.9714285714285" y="1440" as="targetPoint" />
          </mxGeometry>
        </mxCell>
        <mxCell id="3R7wzzP7kjICKfFNbeku-172" value="for (int i = 0; i &amp;lt; n; i++)" style="text;html=1;align=center;verticalAlign=middle;whiteSpace=wrap;rounded=0;" vertex="1" parent="1">
          <mxGeometry x="1415.9714285714285" y="1380" width="120" height="30" as="geometry" />
        </mxCell>
        <mxCell id="3R7wzzP7kjICKfFNbeku-176" value="Node* temp = l.head;" style="rounded=0;whiteSpace=wrap;html=1;" vertex="1" parent="1">
          <mxGeometry x="1413.97" y="1440" width="120" height="30" as="geometry" />
        </mxCell>
        <mxCell id="3R7wzzP7kjICKfFNbeku-184" value="" style="edgeStyle=orthogonalEdgeStyle;rounded=0;orthogonalLoop=1;jettySize=auto;html=1;" edge="1" parent="1">
          <mxGeometry relative="1" as="geometry">
            <mxPoint x="1478.5" y="1470" as="sourcePoint" />
            <mxPoint x="1478.5" y="1490" as="targetPoint" />
          </mxGeometry>
        </mxCell>
        <mxCell id="3R7wzzP7kjICKfFNbeku-185" value="cout &amp;lt;&amp;lt; &quot;Введите элемент: &quot;;" style="shape=parallelogram;perimeter=parallelogramPerimeter;whiteSpace=wrap;html=1;fixedSize=1;" vertex="1" parent="1">
          <mxGeometry x="1380" y="1490" width="200" height="40" as="geometry" />
        </mxCell>
        <mxCell id="3R7wzzP7kjICKfFNbeku-186" value="" style="edgeStyle=orthogonalEdgeStyle;rounded=0;orthogonalLoop=1;jettySize=auto;html=1;" edge="1" parent="1">
          <mxGeometry relative="1" as="geometry">
            <mxPoint x="1478.5" y="1530" as="sourcePoint" />
            <mxPoint x="1478.5" y="1550" as="targetPoint" />
          </mxGeometry>
        </mxCell>
        <mxCell id="3R7wzzP7kjICKfFNbeku-187" value="" style="edgeStyle=orthogonalEdgeStyle;rounded=0;orthogonalLoop=1;jettySize=auto;html=1;" edge="1" parent="1">
          <mxGeometry relative="1" as="geometry">
            <mxPoint x="1478.5" y="1530" as="sourcePoint" />
            <mxPoint x="1478.5" y="1550" as="targetPoint" />
          </mxGeometry>
        </mxCell>
        <mxCell id="3R7wzzP7kjICKfFNbeku-188" value="cin &amp;gt;&amp;gt; newNode-&amp;gt;data;" style="shape=parallelogram;perimeter=parallelogramPerimeter;whiteSpace=wrap;html=1;fixedSize=1;" vertex="1" parent="1">
          <mxGeometry x="1380" y="1550" width="200" height="40" as="geometry" />
        </mxCell>
        <mxCell id="3R7wzzP7kjICKfFNbeku-190" value="" style="edgeStyle=orthogonalEdgeStyle;rounded=0;orthogonalLoop=1;jettySize=auto;html=1;" edge="1" parent="1">
          <mxGeometry relative="1" as="geometry">
            <mxPoint x="1473.702857142857" y="1590" as="sourcePoint" />
            <mxPoint x="1473.942857142857" y="1610" as="targetPoint" />
          </mxGeometry>
        </mxCell>
        <mxCell id="3R7wzzP7kjICKfFNbeku-191" value="" style="edgeStyle=orthogonalEdgeStyle;rounded=0;orthogonalLoop=1;jettySize=auto;html=1;" edge="1" parent="1">
          <mxGeometry relative="1" as="geometry">
            <mxPoint x="1473.942857142857" y="1590" as="sourcePoint" />
            <mxPoint x="1473.942857142857" y="1610" as="targetPoint" />
          </mxGeometry>
        </mxCell>
        <mxCell id="3R7wzzP7kjICKfFNbeku-192" style="edgeStyle=orthogonalEdgeStyle;rounded=0;orthogonalLoop=1;jettySize=auto;html=1;exitX=0;exitY=0.5;exitDx=0;exitDy=0;" edge="1" source="3R7wzzP7kjICKfFNbeku-194" parent="1">
          <mxGeometry relative="1" as="geometry">
            <mxPoint x="1330" y="1700" as="targetPoint" />
          </mxGeometry>
        </mxCell>
        <mxCell id="3R7wzzP7kjICKfFNbeku-193" style="edgeStyle=orthogonalEdgeStyle;rounded=0;orthogonalLoop=1;jettySize=auto;html=1;exitX=1;exitY=0.5;exitDx=0;exitDy=0;" edge="1" source="3R7wzzP7kjICKfFNbeku-194" parent="1">
          <mxGeometry relative="1" as="geometry">
            <mxPoint x="1629.9999999999998" y="1700" as="targetPoint" />
          </mxGeometry>
        </mxCell>
        <mxCell id="3R7wzzP7kjICKfFNbeku-194" value="if (index == 0)" style="rhombus;whiteSpace=wrap;html=1;" vertex="1" parent="1">
          <mxGeometry x="1410" y="1610" width="130" height="80" as="geometry" />
        </mxCell>
        <mxCell id="3R7wzzP7kjICKfFNbeku-199" style="edgeStyle=orthogonalEdgeStyle;rounded=0;orthogonalLoop=1;jettySize=auto;html=1;exitX=0.5;exitY=1;exitDx=0;exitDy=0;" edge="1" parent="1" source="3R7wzzP7kjICKfFNbeku-196">
          <mxGeometry relative="1" as="geometry">
            <mxPoint x="1330.3333333333335" y="1750" as="targetPoint" />
          </mxGeometry>
        </mxCell>
        <mxCell id="3R7wzzP7kjICKfFNbeku-196" value="newNode-&amp;gt;next = l.head;" style="rounded=0;whiteSpace=wrap;html=1;" vertex="1" parent="1">
          <mxGeometry x="1270" y="1700" width="120" height="30" as="geometry" />
        </mxCell>
        <mxCell id="3R7wzzP7kjICKfFNbeku-198" value="newNode-&amp;gt;next = temp-&amp;gt;next;" style="rounded=0;whiteSpace=wrap;html=1;" vertex="1" parent="1">
          <mxGeometry x="1570" y="1700" width="120" height="30" as="geometry" />
        </mxCell>
        <mxCell id="3R7wzzP7kjICKfFNbeku-201" value="l.head = newNode;" style="rounded=0;whiteSpace=wrap;html=1;" vertex="1" parent="1">
          <mxGeometry x="1270" y="1754" width="120" height="30" as="geometry" />
        </mxCell>
        <mxCell id="3R7wzzP7kjICKfFNbeku-202" value="" style="edgeStyle=orthogonalEdgeStyle;rounded=0;orthogonalLoop=1;jettySize=auto;html=1;" edge="1" parent="1">
          <mxGeometry relative="1" as="geometry">
            <mxPoint x="1333.702857142857" y="1784" as="sourcePoint" />
            <mxPoint x="1333.942857142857" y="1804" as="targetPoint" />
          </mxGeometry>
        </mxCell>
        <mxCell id="3R7wzzP7kjICKfFNbeku-203" value="" style="edgeStyle=orthogonalEdgeStyle;rounded=0;orthogonalLoop=1;jettySize=auto;html=1;" edge="1" parent="1">
          <mxGeometry relative="1" as="geometry">
            <mxPoint x="1333.942857142857" y="1784" as="sourcePoint" />
            <mxPoint x="1333.942857142857" y="1804" as="targetPoint" />
          </mxGeometry>
        </mxCell>
        <mxCell id="3R7wzzP7kjICKfFNbeku-204" style="edgeStyle=orthogonalEdgeStyle;rounded=0;orthogonalLoop=1;jettySize=auto;html=1;exitX=0;exitY=0.5;exitDx=0;exitDy=0;" edge="1" source="3R7wzzP7kjICKfFNbeku-206" parent="1">
          <mxGeometry relative="1" as="geometry">
            <mxPoint x="1190" y="1894" as="targetPoint" />
          </mxGeometry>
        </mxCell>
        <mxCell id="3R7wzzP7kjICKfFNbeku-205" style="edgeStyle=orthogonalEdgeStyle;rounded=0;orthogonalLoop=1;jettySize=auto;html=1;exitX=1;exitY=0.5;exitDx=0;exitDy=0;" edge="1" source="3R7wzzP7kjICKfFNbeku-206" parent="1">
          <mxGeometry relative="1" as="geometry">
            <mxPoint x="1340" y="1940" as="targetPoint" />
            <Array as="points">
              <mxPoint x="1420" y="1844" />
              <mxPoint x="1420" y="1940" />
            </Array>
          </mxGeometry>
        </mxCell>
        <mxCell id="3R7wzzP7kjICKfFNbeku-206" value="if (l.size == 0)&amp;nbsp;" style="rhombus;whiteSpace=wrap;html=1;" vertex="1" parent="1">
          <mxGeometry x="1270" y="1804" width="130" height="80" as="geometry" />
        </mxCell>
        <mxCell id="3R7wzzP7kjICKfFNbeku-207" style="edgeStyle=orthogonalEdgeStyle;rounded=0;orthogonalLoop=1;jettySize=auto;html=1;exitX=0.5;exitY=1;exitDx=0;exitDy=0;" edge="1" source="3R7wzzP7kjICKfFNbeku-208" parent="1">
          <mxGeometry relative="1" as="geometry">
            <mxPoint x="1340" y="1940" as="targetPoint" />
            <Array as="points">
              <mxPoint x="1190" y="1940" />
              <mxPoint x="1340" y="1940" />
            </Array>
          </mxGeometry>
        </mxCell>
        <mxCell id="3R7wzzP7kjICKfFNbeku-208" value="l.tail = newNode;" style="rounded=0;whiteSpace=wrap;html=1;" vertex="1" parent="1">
          <mxGeometry x="1130" y="1894" width="120" height="30" as="geometry" />
        </mxCell>
        <mxCell id="3R7wzzP7kjICKfFNbeku-212" style="edgeStyle=orthogonalEdgeStyle;rounded=0;orthogonalLoop=1;jettySize=auto;html=1;exitX=0.5;exitY=1;exitDx=0;exitDy=0;" edge="1" parent="1">
          <mxGeometry relative="1" as="geometry">
            <mxPoint x="1630.3333333333335" y="1750" as="targetPoint" />
            <mxPoint x="1630" y="1730" as="sourcePoint" />
          </mxGeometry>
        </mxCell>
        <mxCell id="3R7wzzP7kjICKfFNbeku-213" value="temp-&amp;gt;next = newNode;" style="rounded=0;whiteSpace=wrap;html=1;" vertex="1" parent="1">
          <mxGeometry x="1570" y="1754" width="120" height="30" as="geometry" />
        </mxCell>
        <mxCell id="3R7wzzP7kjICKfFNbeku-221" style="edgeStyle=orthogonalEdgeStyle;rounded=0;orthogonalLoop=1;jettySize=auto;html=1;exitX=0.5;exitY=1;exitDx=0;exitDy=0;" edge="1" parent="1">
          <mxGeometry relative="1" as="geometry">
            <mxPoint x="1630.3333333333335" y="1804" as="targetPoint" />
            <mxPoint x="1630" y="1784" as="sourcePoint" />
          </mxGeometry>
        </mxCell>
        <mxCell id="3R7wzzP7kjICKfFNbeku-222" value="temp = newNode;&amp;nbsp;" style="rounded=0;whiteSpace=wrap;html=1;" vertex="1" parent="1">
          <mxGeometry x="1570" y="1808" width="120" height="30" as="geometry" />
        </mxCell>
        <mxCell id="3R7wzzP7kjICKfFNbeku-223" value="" style="edgeStyle=orthogonalEdgeStyle;rounded=0;orthogonalLoop=1;jettySize=auto;html=1;" edge="1" parent="1">
          <mxGeometry relative="1" as="geometry">
            <mxPoint x="1633.702857142857" y="1838" as="sourcePoint" />
            <mxPoint x="1633.942857142857" y="1858" as="targetPoint" />
          </mxGeometry>
        </mxCell>
        <mxCell id="3R7wzzP7kjICKfFNbeku-224" value="" style="edgeStyle=orthogonalEdgeStyle;rounded=0;orthogonalLoop=1;jettySize=auto;html=1;" edge="1" parent="1">
          <mxGeometry relative="1" as="geometry">
            <mxPoint x="1633.942857142857" y="1838" as="sourcePoint" />
            <mxPoint x="1633.942857142857" y="1858" as="targetPoint" />
          </mxGeometry>
        </mxCell>
        <mxCell id="3R7wzzP7kjICKfFNbeku-225" style="edgeStyle=orthogonalEdgeStyle;rounded=0;orthogonalLoop=1;jettySize=auto;html=1;exitX=0;exitY=0.5;exitDx=0;exitDy=0;" edge="1" source="3R7wzzP7kjICKfFNbeku-227" parent="1">
          <mxGeometry relative="1" as="geometry">
            <mxPoint x="1490" y="1948" as="targetPoint" />
          </mxGeometry>
        </mxCell>
        <mxCell id="3R7wzzP7kjICKfFNbeku-227" value="if (newNode-&amp;gt;&lt;div&gt;next == nullptr)&amp;nbsp;&lt;/div&gt;" style="rhombus;whiteSpace=wrap;html=1;" vertex="1" parent="1">
          <mxGeometry x="1570" y="1858" width="130" height="80" as="geometry" />
        </mxCell>
        <mxCell id="3R7wzzP7kjICKfFNbeku-228" style="edgeStyle=orthogonalEdgeStyle;rounded=0;orthogonalLoop=1;jettySize=auto;html=1;exitX=0.5;exitY=1;exitDx=0;exitDy=0;" edge="1" source="3R7wzzP7kjICKfFNbeku-229" parent="1">
          <mxGeometry relative="1" as="geometry">
            <mxPoint x="1639.9999999999998" y="1998" as="targetPoint" />
            <Array as="points">
              <mxPoint x="1490" y="1998" />
            </Array>
          </mxGeometry>
        </mxCell>
        <mxCell id="3R7wzzP7kjICKfFNbeku-229" value="l.tail = newNode;" style="rounded=0;whiteSpace=wrap;html=1;" vertex="1" parent="1">
          <mxGeometry x="1430" y="1948" width="120" height="30" as="geometry" />
        </mxCell>
        <mxCell id="3R7wzzP7kjICKfFNbeku-230" style="edgeStyle=orthogonalEdgeStyle;rounded=0;orthogonalLoop=1;jettySize=auto;html=1;exitX=1;exitY=0.5;exitDx=0;exitDy=0;" edge="1" source="3R7wzzP7kjICKfFNbeku-227" parent="1">
          <mxGeometry relative="1" as="geometry">
            <mxPoint x="1639.9999999999998" y="1998" as="targetPoint" />
            <Array as="points">
              <mxPoint x="1790" y="1898" />
              <mxPoint x="1790" y="1998" />
            </Array>
            <mxPoint x="1790" y="1978" as="sourcePoint" />
          </mxGeometry>
        </mxCell>
        <mxCell id="3R7wzzP7kjICKfFNbeku-232" value="" style="endArrow=classic;html=1;rounded=0;" edge="1" parent="1">
          <mxGeometry width="50" height="50" relative="1" as="geometry">
            <mxPoint x="1340" y="1938" as="sourcePoint" />
            <mxPoint x="1480" y="2060" as="targetPoint" />
            <Array as="points">
              <mxPoint x="1340" y="2060" />
            </Array>
          </mxGeometry>
        </mxCell>
        <mxCell id="3R7wzzP7kjICKfFNbeku-233" value="" style="endArrow=classic;html=1;rounded=0;" edge="1" parent="1">
          <mxGeometry width="50" height="50" relative="1" as="geometry">
            <mxPoint x="1640" y="2000" as="sourcePoint" />
            <mxPoint x="1480" y="2060" as="targetPoint" />
            <Array as="points">
              <mxPoint x="1640" y="2060" />
            </Array>
          </mxGeometry>
        </mxCell>
        <mxCell id="3R7wzzP7kjICKfFNbeku-234" value="" style="endArrow=classic;html=1;rounded=0;entryX=0;entryY=0.5;entryDx=0;entryDy=0;" edge="1" parent="1" target="3R7wzzP7kjICKfFNbeku-170">
          <mxGeometry width="50" height="50" relative="1" as="geometry">
            <mxPoint x="1480" y="2060" as="sourcePoint" />
            <mxPoint x="1530" y="2010" as="targetPoint" />
            <Array as="points">
              <mxPoint x="1480" y="2120" />
              <mxPoint x="1280" y="2120" />
              <mxPoint x="1080" y="2120" />
              <mxPoint x="1090" y="1395" />
            </Array>
          </mxGeometry>
        </mxCell>
        <mxCell id="3R7wzzP7kjICKfFNbeku-235" value="l.size++;" style="rounded=0;whiteSpace=wrap;html=1;" vertex="1" parent="1">
          <mxGeometry x="1415.97" y="2080" width="120" height="30" as="geometry" />
        </mxCell>
        <mxCell id="3R7wzzP7kjICKfFNbeku-236" value="return;" style="ellipse;whiteSpace=wrap;html=1;" vertex="1" parent="1">
          <mxGeometry x="1670" y="1480" width="120" height="50" as="geometry" />
        </mxCell>
        <mxCell id="3R7wzzP7kjICKfFNbeku-237" style="edgeStyle=orthogonalEdgeStyle;rounded=0;orthogonalLoop=1;jettySize=auto;html=1;exitX=0.5;exitY=1;exitDx=0;exitDy=0;" edge="1" parent="1" source="3R7wzzP7kjICKfFNbeku-238">
          <mxGeometry relative="1" as="geometry">
            <mxPoint x="2240" y="1360" as="targetPoint" />
          </mxGeometry>
        </mxCell>
        <mxCell id="3R7wzzP7kjICKfFNbeku-238" value="void print(List&amp;amp; l)" style="shape=process;whiteSpace=wrap;html=1;backgroundOutline=1;" vertex="1" parent="1">
          <mxGeometry x="2180" y="1310" width="120" height="30" as="geometry" />
        </mxCell>
        <mxCell id="3R7wzzP7kjICKfFNbeku-239" value="Node* temp = l.head;" style="rounded=0;whiteSpace=wrap;html=1;" vertex="1" parent="1">
          <mxGeometry x="2180" y="1360" width="120" height="30" as="geometry" />
        </mxCell>
        <mxCell id="3R7wzzP7kjICKfFNbeku-240" style="edgeStyle=orthogonalEdgeStyle;rounded=0;orthogonalLoop=1;jettySize=auto;html=1;exitX=0.5;exitY=1;exitDx=0;exitDy=0;" edge="1" parent="1">
          <mxGeometry relative="1" as="geometry">
            <mxPoint x="2240" y="1410" as="targetPoint" />
            <mxPoint x="2240" y="1390" as="sourcePoint" />
          </mxGeometry>
        </mxCell>
        <mxCell id="3R7wzzP7kjICKfFNbeku-241" value="" style="edgeStyle=orthogonalEdgeStyle;rounded=0;orthogonalLoop=1;jettySize=auto;html=1;" edge="1" parent="1">
          <mxGeometry relative="1" as="geometry">
            <mxPoint x="2239.9714285714285" y="1390" as="sourcePoint" />
            <mxPoint x="2239.9714285714285" y="1410" as="targetPoint" />
          </mxGeometry>
        </mxCell>
        <mxCell id="3R7wzzP7kjICKfFNbeku-243" style="edgeStyle=orthogonalEdgeStyle;rounded=0;orthogonalLoop=1;jettySize=auto;html=1;exitX=0.5;exitY=1;exitDx=0;exitDy=0;" edge="1" parent="1" source="3R7wzzP7kjICKfFNbeku-242">
          <mxGeometry relative="1" as="geometry">
            <mxPoint x="2240.238095238095" y="1480" as="targetPoint" />
          </mxGeometry>
        </mxCell>
        <mxCell id="3R7wzzP7kjICKfFNbeku-249" style="edgeStyle=orthogonalEdgeStyle;rounded=0;orthogonalLoop=1;jettySize=auto;html=1;exitX=1;exitY=0.5;exitDx=0;exitDy=0;" edge="1" parent="1" source="3R7wzzP7kjICKfFNbeku-242">
          <mxGeometry relative="1" as="geometry">
            <mxPoint x="2440" y="1470" as="targetPoint" />
          </mxGeometry>
        </mxCell>
        <mxCell id="3R7wzzP7kjICKfFNbeku-242" value="while (temp != nullptr)" style="rhombus;whiteSpace=wrap;html=1;" vertex="1" parent="1">
          <mxGeometry x="2160" y="1410" width="160" height="50" as="geometry" />
        </mxCell>
        <mxCell id="3R7wzzP7kjICKfFNbeku-244" value="cout &amp;lt;&amp;lt; temp-&amp;gt;data &amp;lt;&amp;lt; &#39; &#39;;" style="shape=parallelogram;perimeter=parallelogramPerimeter;whiteSpace=wrap;html=1;fixedSize=1;" vertex="1" parent="1">
          <mxGeometry x="2150" y="1480" width="170" height="30" as="geometry" />
        </mxCell>
        <mxCell id="3R7wzzP7kjICKfFNbeku-245" style="edgeStyle=orthogonalEdgeStyle;rounded=0;orthogonalLoop=1;jettySize=auto;html=1;exitX=0.5;exitY=1;exitDx=0;exitDy=0;" edge="1" parent="1">
          <mxGeometry relative="1" as="geometry">
            <mxPoint x="2240.238095238095" y="1530" as="targetPoint" />
            <mxPoint x="2240" y="1510" as="sourcePoint" />
          </mxGeometry>
        </mxCell>
        <mxCell id="3R7wzzP7kjICKfFNbeku-248" style="edgeStyle=orthogonalEdgeStyle;rounded=0;orthogonalLoop=1;jettySize=auto;html=1;exitX=0.5;exitY=1;exitDx=0;exitDy=0;entryX=0;entryY=0.5;entryDx=0;entryDy=0;" edge="1" parent="1" source="3R7wzzP7kjICKfFNbeku-246" target="3R7wzzP7kjICKfFNbeku-242">
          <mxGeometry relative="1" as="geometry">
            <Array as="points">
              <mxPoint x="2235" y="1590" />
              <mxPoint x="2140" y="1590" />
              <mxPoint x="2140" y="1435" />
            </Array>
          </mxGeometry>
        </mxCell>
        <mxCell id="3R7wzzP7kjICKfFNbeku-246" value="temp = temp-&amp;gt;next;" style="shape=parallelogram;perimeter=parallelogramPerimeter;whiteSpace=wrap;html=1;fixedSize=1;" vertex="1" parent="1">
          <mxGeometry x="2150" y="1530" width="170" height="40" as="geometry" />
        </mxCell>
        <mxCell id="3R7wzzP7kjICKfFNbeku-251" style="edgeStyle=orthogonalEdgeStyle;rounded=0;orthogonalLoop=1;jettySize=auto;html=1;exitX=0.5;exitY=1;exitDx=0;exitDy=0;" edge="1" parent="1" source="3R7wzzP7kjICKfFNbeku-250">
          <mxGeometry relative="1" as="geometry">
            <mxPoint x="2435.1428571428573" y="1520" as="targetPoint" />
          </mxGeometry>
        </mxCell>
        <mxCell id="3R7wzzP7kjICKfFNbeku-250" value="cout &amp;lt;&amp;lt; endl;" style="shape=parallelogram;perimeter=parallelogramPerimeter;whiteSpace=wrap;html=1;fixedSize=1;" vertex="1" parent="1">
          <mxGeometry x="2350" y="1470" width="170" height="30" as="geometry" />
        </mxCell>
        <mxCell id="3R7wzzP7kjICKfFNbeku-252" value="return;" style="ellipse;whiteSpace=wrap;html=1;" vertex="1" parent="1">
          <mxGeometry x="2375" y="1520" width="120" height="40" as="geometry" />
        </mxCell>
        <mxCell id="3R7wzzP7kjICKfFNbeku-254" style="edgeStyle=orthogonalEdgeStyle;rounded=0;orthogonalLoop=1;jettySize=auto;html=1;exitX=0.5;exitY=1;exitDx=0;exitDy=0;" edge="1" parent="1" source="3R7wzzP7kjICKfFNbeku-255">
          <mxGeometry relative="1" as="geometry">
            <mxPoint x="2180" y="1700" as="targetPoint" />
          </mxGeometry>
        </mxCell>
        <mxCell id="3R7wzzP7kjICKfFNbeku-255" value="void addfile(List&amp;amp; l, FILE*&amp;amp; fp)" style="shape=process;whiteSpace=wrap;html=1;backgroundOutline=1;" vertex="1" parent="1">
          <mxGeometry x="2120" y="1650" width="120" height="30" as="geometry" />
        </mxCell>
        <mxCell id="3R7wzzP7kjICKfFNbeku-256" value="Node* temp = l.head;&lt;div&gt;int i = 0;&lt;br&gt;&lt;/div&gt;" style="rounded=0;whiteSpace=wrap;html=1;" vertex="1" parent="1">
          <mxGeometry x="2120" y="1700" width="120" height="30" as="geometry" />
        </mxCell>
        <mxCell id="3R7wzzP7kjICKfFNbeku-257" style="edgeStyle=orthogonalEdgeStyle;rounded=0;orthogonalLoop=1;jettySize=auto;html=1;exitX=0.5;exitY=1;exitDx=0;exitDy=0;" edge="1" parent="1">
          <mxGeometry relative="1" as="geometry">
            <mxPoint x="2180" y="1750" as="targetPoint" />
            <mxPoint x="2180" y="1730" as="sourcePoint" />
          </mxGeometry>
        </mxCell>
        <mxCell id="3R7wzzP7kjICKfFNbeku-258" value="" style="edgeStyle=orthogonalEdgeStyle;rounded=0;orthogonalLoop=1;jettySize=auto;html=1;" edge="1" parent="1">
          <mxGeometry relative="1" as="geometry">
            <mxPoint x="2179.9714285714285" y="1730" as="sourcePoint" />
            <mxPoint x="2179.9714285714285" y="1750" as="targetPoint" />
          </mxGeometry>
        </mxCell>
        <mxCell id="3R7wzzP7kjICKfFNbeku-259" style="edgeStyle=orthogonalEdgeStyle;rounded=0;orthogonalLoop=1;jettySize=auto;html=1;exitX=0.5;exitY=1;exitDx=0;exitDy=0;" edge="1" parent="1" source="3R7wzzP7kjICKfFNbeku-261">
          <mxGeometry relative="1" as="geometry">
            <mxPoint x="2180.238095238095" y="1820" as="targetPoint" />
          </mxGeometry>
        </mxCell>
        <mxCell id="3R7wzzP7kjICKfFNbeku-260" style="edgeStyle=orthogonalEdgeStyle;rounded=0;orthogonalLoop=1;jettySize=auto;html=1;exitX=1;exitY=0.5;exitDx=0;exitDy=0;" edge="1" parent="1" source="3R7wzzP7kjICKfFNbeku-261">
          <mxGeometry relative="1" as="geometry">
            <mxPoint x="2380" y="1810" as="targetPoint" />
          </mxGeometry>
        </mxCell>
        <mxCell id="3R7wzzP7kjICKfFNbeku-261" value="while (temp != nullptr)" style="rhombus;whiteSpace=wrap;html=1;" vertex="1" parent="1">
          <mxGeometry x="2100" y="1750" width="160" height="50" as="geometry" />
        </mxCell>
        <mxCell id="3R7wzzP7kjICKfFNbeku-263" style="edgeStyle=orthogonalEdgeStyle;rounded=0;orthogonalLoop=1;jettySize=auto;html=1;exitX=0.5;exitY=1;exitDx=0;exitDy=0;" edge="1" parent="1">
          <mxGeometry relative="1" as="geometry">
            <mxPoint x="2180.238095238095" y="1870" as="targetPoint" />
            <mxPoint x="2180" y="1850" as="sourcePoint" />
          </mxGeometry>
        </mxCell>
        <mxCell id="3R7wzzP7kjICKfFNbeku-264" style="edgeStyle=orthogonalEdgeStyle;rounded=0;orthogonalLoop=1;jettySize=auto;html=1;exitX=0.538;exitY=1.048;exitDx=0;exitDy=0;entryX=0;entryY=0.5;entryDx=0;entryDy=0;exitPerimeter=0;" edge="1" parent="1" source="3R7wzzP7kjICKfFNbeku-271" target="3R7wzzP7kjICKfFNbeku-261">
          <mxGeometry relative="1" as="geometry">
            <Array as="points">
              <mxPoint x="2175" y="1930" />
              <mxPoint x="2080" y="1930" />
              <mxPoint x="2080" y="1775" />
            </Array>
            <mxPoint x="2175" y="1910" as="sourcePoint" />
          </mxGeometry>
        </mxCell>
        <mxCell id="3R7wzzP7kjICKfFNbeku-268" value="return;" style="ellipse;whiteSpace=wrap;html=1;" vertex="1" parent="1">
          <mxGeometry x="2315" y="1810" width="120" height="40" as="geometry" />
        </mxCell>
        <mxCell id="3R7wzzP7kjICKfFNbeku-270" value="&lt;font style=&quot;font-size: 9px;&quot;&gt;fprintf(fp, &quot;Элемент %d: %s\n&quot;, i++, temp-&amp;gt;data);&lt;/font&gt;" style="rounded=0;whiteSpace=wrap;html=1;" vertex="1" parent="1">
          <mxGeometry x="2120" y="1820" width="120" height="30" as="geometry" />
        </mxCell>
        <mxCell id="3R7wzzP7kjICKfFNbeku-271" value="temp = temp-&amp;gt;next;" style="rounded=0;whiteSpace=wrap;html=1;" vertex="1" parent="1">
          <mxGeometry x="2110" y="1870" width="120" height="30" as="geometry" />
        </mxCell>
        <mxCell id="3R7wzzP7kjICKfFNbeku-302" style="edgeStyle=orthogonalEdgeStyle;rounded=0;orthogonalLoop=1;jettySize=auto;html=1;exitX=0.5;exitY=1;exitDx=0;exitDy=0;" edge="1" parent="1" source="3R7wzzP7kjICKfFNbeku-303">
          <mxGeometry relative="1" as="geometry">
            <mxPoint x="2710" y="1365" as="targetPoint" />
          </mxGeometry>
        </mxCell>
        <mxCell id="3R7wzzP7kjICKfFNbeku-303" value="void del_l(List&amp;amp; l)" style="shape=process;whiteSpace=wrap;html=1;backgroundOutline=1;" vertex="1" parent="1">
          <mxGeometry x="2650" y="1315" width="120" height="30" as="geometry" />
        </mxCell>
        <mxCell id="3R7wzzP7kjICKfFNbeku-304" value="Node* temp = l.head;&lt;div&gt;int i = 0;&lt;br&gt;&lt;/div&gt;" style="rounded=0;whiteSpace=wrap;html=1;" vertex="1" parent="1">
          <mxGeometry x="2650" y="1365" width="120" height="30" as="geometry" />
        </mxCell>
        <mxCell id="3R7wzzP7kjICKfFNbeku-305" style="edgeStyle=orthogonalEdgeStyle;rounded=0;orthogonalLoop=1;jettySize=auto;html=1;exitX=0.5;exitY=1;exitDx=0;exitDy=0;" edge="1" parent="1">
          <mxGeometry relative="1" as="geometry">
            <mxPoint x="2710" y="1415" as="targetPoint" />
            <mxPoint x="2710" y="1395" as="sourcePoint" />
          </mxGeometry>
        </mxCell>
        <mxCell id="3R7wzzP7kjICKfFNbeku-306" value="" style="edgeStyle=orthogonalEdgeStyle;rounded=0;orthogonalLoop=1;jettySize=auto;html=1;" edge="1" parent="1">
          <mxGeometry relative="1" as="geometry">
            <mxPoint x="2709.9714285714285" y="1395" as="sourcePoint" />
            <mxPoint x="2709.9714285714285" y="1415" as="targetPoint" />
          </mxGeometry>
        </mxCell>
        <mxCell id="3R7wzzP7kjICKfFNbeku-307" style="edgeStyle=orthogonalEdgeStyle;rounded=0;orthogonalLoop=1;jettySize=auto;html=1;exitX=0.5;exitY=1;exitDx=0;exitDy=0;" edge="1" parent="1" source="3R7wzzP7kjICKfFNbeku-309">
          <mxGeometry relative="1" as="geometry">
            <mxPoint x="2710.238095238095" y="1485" as="targetPoint" />
          </mxGeometry>
        </mxCell>
        <mxCell id="3R7wzzP7kjICKfFNbeku-308" style="edgeStyle=orthogonalEdgeStyle;rounded=0;orthogonalLoop=1;jettySize=auto;html=1;exitX=1;exitY=0.5;exitDx=0;exitDy=0;" edge="1" parent="1" source="3R7wzzP7kjICKfFNbeku-309">
          <mxGeometry relative="1" as="geometry">
            <mxPoint x="2910" y="1475" as="targetPoint" />
          </mxGeometry>
        </mxCell>
        <mxCell id="3R7wzzP7kjICKfFNbeku-309" value="while (temp != nullptr)" style="rhombus;whiteSpace=wrap;html=1;" vertex="1" parent="1">
          <mxGeometry x="2630" y="1415" width="160" height="50" as="geometry" />
        </mxCell>
        <mxCell id="3R7wzzP7kjICKfFNbeku-310" style="edgeStyle=orthogonalEdgeStyle;rounded=0;orthogonalLoop=1;jettySize=auto;html=1;exitX=0.5;exitY=1;exitDx=0;exitDy=0;" edge="1" parent="1">
          <mxGeometry relative="1" as="geometry">
            <mxPoint x="2710.238095238095" y="1535" as="targetPoint" />
            <mxPoint x="2710" y="1515" as="sourcePoint" />
          </mxGeometry>
        </mxCell>
        <mxCell id="3R7wzzP7kjICKfFNbeku-311" style="edgeStyle=orthogonalEdgeStyle;rounded=0;orthogonalLoop=1;jettySize=auto;html=1;exitX=0.538;exitY=1.048;exitDx=0;exitDy=0;entryX=0;entryY=0.5;entryDx=0;entryDy=0;exitPerimeter=0;" edge="1" parent="1" source="3R7wzzP7kjICKfFNbeku-314" target="3R7wzzP7kjICKfFNbeku-309">
          <mxGeometry relative="1" as="geometry">
            <Array as="points">
              <mxPoint x="2705" y="1670" />
              <mxPoint x="2610" y="1670" />
              <mxPoint x="2610" y="1440" />
            </Array>
            <mxPoint x="2705" y="1575" as="sourcePoint" />
          </mxGeometry>
        </mxCell>
        <mxCell id="3R7wzzP7kjICKfFNbeku-313" value="&lt;font style=&quot;font-size: 9px;&quot;&gt;Node* nextNode = temp-&amp;gt;next;&lt;/font&gt;" style="rounded=0;whiteSpace=wrap;html=1;" vertex="1" parent="1">
          <mxGeometry x="2650" y="1485" width="120" height="30" as="geometry" />
        </mxCell>
        <mxCell id="3R7wzzP7kjICKfFNbeku-314" value="delete temp;" style="rounded=0;whiteSpace=wrap;html=1;" vertex="1" parent="1">
          <mxGeometry x="2640" y="1535" width="120" height="30" as="geometry" />
        </mxCell>
        <mxCell id="3R7wzzP7kjICKfFNbeku-315" value="temp = nextNode;" style="rounded=0;whiteSpace=wrap;html=1;" vertex="1" parent="1">
          <mxGeometry x="2640" y="1590" width="120" height="30" as="geometry" />
        </mxCell>
        <mxCell id="3R7wzzP7kjICKfFNbeku-317" value="l.head = nullptr;&lt;div&gt;l.tail = nullptr;&lt;br&gt;&lt;/div&gt;" style="rounded=0;whiteSpace=wrap;html=1;" vertex="1" parent="1">
          <mxGeometry x="2840" y="1477.5" width="120" height="32.5" as="geometry" />
        </mxCell>
        <mxCell id="3R7wzzP7kjICKfFNbeku-320" style="edgeStyle=orthogonalEdgeStyle;rounded=0;orthogonalLoop=1;jettySize=auto;html=1;exitX=0.5;exitY=1;exitDx=0;exitDy=0;" edge="1" parent="1" source="3R7wzzP7kjICKfFNbeku-318">
          <mxGeometry relative="1" as="geometry">
            <mxPoint x="2900.238095238095" y="1580" as="targetPoint" />
          </mxGeometry>
        </mxCell>
        <mxCell id="3R7wzzP7kjICKfFNbeku-318" value="l.size = 0;" style="rounded=0;whiteSpace=wrap;html=1;" vertex="1" parent="1">
          <mxGeometry x="2840" y="1532.5" width="120" height="30" as="geometry" />
        </mxCell>
        <mxCell id="3R7wzzP7kjICKfFNbeku-319" style="edgeStyle=orthogonalEdgeStyle;rounded=0;orthogonalLoop=1;jettySize=auto;html=1;exitX=0.5;exitY=1;exitDx=0;exitDy=0;entryX=0.466;entryY=-0.004;entryDx=0;entryDy=0;entryPerimeter=0;" edge="1" parent="1" source="3R7wzzP7kjICKfFNbeku-317" target="3R7wzzP7kjICKfFNbeku-318">
          <mxGeometry relative="1" as="geometry" />
        </mxCell>
        <mxCell id="3R7wzzP7kjICKfFNbeku-321" value="return;" style="ellipse;whiteSpace=wrap;html=1;" vertex="1" parent="1">
          <mxGeometry x="2840" y="1578" width="120" height="32" as="geometry" />
        </mxCell>
        <mxCell id="3R7wzzP7kjICKfFNbeku-340" style="edgeStyle=orthogonalEdgeStyle;rounded=0;orthogonalLoop=1;jettySize=auto;html=1;exitX=0.5;exitY=1;exitDx=0;exitDy=0;" edge="1" parent="1" source="3R7wzzP7kjICKfFNbeku-341">
          <mxGeometry relative="1" as="geometry">
            <mxPoint x="2900" y="307.5" as="targetPoint" />
          </mxGeometry>
        </mxCell>
        <mxCell id="3R7wzzP7kjICKfFNbeku-341" value="void readfile(FILE*&amp;amp; fp, List&amp;amp; l)&amp;nbsp;" style="shape=process;whiteSpace=wrap;html=1;backgroundOutline=1;" vertex="1" parent="1">
          <mxGeometry x="2840" y="240" width="120" height="47.5" as="geometry" />
        </mxCell>
        <mxCell id="3R7wzzP7kjICKfFNbeku-342" value="&lt;div&gt;int index;&lt;br&gt;&lt;/div&gt;" style="rounded=0;whiteSpace=wrap;html=1;" vertex="1" parent="1">
          <mxGeometry x="2840" y="307.5" width="120" height="30" as="geometry" />
        </mxCell>
        <mxCell id="3R7wzzP7kjICKfFNbeku-343" style="edgeStyle=orthogonalEdgeStyle;rounded=0;orthogonalLoop=1;jettySize=auto;html=1;exitX=0.5;exitY=1;exitDx=0;exitDy=0;" edge="1" parent="1">
          <mxGeometry relative="1" as="geometry">
            <mxPoint x="2900" y="404.97" as="targetPoint" />
            <mxPoint x="2900" y="384.97" as="sourcePoint" />
          </mxGeometry>
        </mxCell>
        <mxCell id="3R7wzzP7kjICKfFNbeku-344" value="" style="edgeStyle=orthogonalEdgeStyle;rounded=0;orthogonalLoop=1;jettySize=auto;html=1;" edge="1" parent="1">
          <mxGeometry relative="1" as="geometry">
            <mxPoint x="2899.9714285714285" y="384.97" as="sourcePoint" />
            <mxPoint x="2899.9714285714285" y="404.97" as="targetPoint" />
          </mxGeometry>
        </mxCell>
        <mxCell id="3R7wzzP7kjICKfFNbeku-345" style="edgeStyle=orthogonalEdgeStyle;rounded=0;orthogonalLoop=1;jettySize=auto;html=1;exitX=0.5;exitY=1;exitDx=0;exitDy=0;" edge="1" parent="1" source="3R7wzzP7kjICKfFNbeku-347">
          <mxGeometry relative="1" as="geometry">
            <mxPoint x="2900.238095238095" y="474.97" as="targetPoint" />
          </mxGeometry>
        </mxCell>
        <mxCell id="3R7wzzP7kjICKfFNbeku-384" style="edgeStyle=orthogonalEdgeStyle;rounded=0;orthogonalLoop=1;jettySize=auto;html=1;exitX=1;exitY=0.5;exitDx=0;exitDy=0;" edge="1" parent="1" source="3R7wzzP7kjICKfFNbeku-347">
          <mxGeometry relative="1" as="geometry">
            <mxPoint x="3070" y="470" as="targetPoint" />
          </mxGeometry>
        </mxCell>
        <mxCell id="3R7wzzP7kjICKfFNbeku-347" value="&lt;font style=&quot;font-size: 7px;&quot;&gt;while (fscanf(fp, &quot;Элемент %d:&amp;nbsp;&lt;/font&gt;&lt;div&gt;&lt;font style=&quot;font-size: 7px;&quot;&gt;%99[^\n]\n&quot;, &amp;amp;index, data) == 2)&lt;/font&gt;&lt;/div&gt;" style="rhombus;whiteSpace=wrap;html=1;" vertex="1" parent="1">
          <mxGeometry x="2820" y="404.97" width="160" height="50" as="geometry" />
        </mxCell>
        <mxCell id="3R7wzzP7kjICKfFNbeku-348" style="edgeStyle=orthogonalEdgeStyle;rounded=0;orthogonalLoop=1;jettySize=auto;html=1;exitX=0.5;exitY=1;exitDx=0;exitDy=0;" edge="1" parent="1">
          <mxGeometry relative="1" as="geometry">
            <mxPoint x="2900.238095238095" y="524.97" as="targetPoint" />
            <mxPoint x="2900" y="504.97" as="sourcePoint" />
          </mxGeometry>
        </mxCell>
        <mxCell id="3R7wzzP7kjICKfFNbeku-350" value="&lt;font style=&quot;font-size: 9px;&quot;&gt;Node* newNode = new Node;&lt;/font&gt;" style="rounded=0;whiteSpace=wrap;html=1;" vertex="1" parent="1">
          <mxGeometry x="2840" y="474.97" width="120" height="30" as="geometry" />
        </mxCell>
        <mxCell id="3R7wzzP7kjICKfFNbeku-361" style="edgeStyle=orthogonalEdgeStyle;rounded=0;orthogonalLoop=1;jettySize=auto;html=1;exitX=0.5;exitY=1;exitDx=0;exitDy=0;entryX=0.5;entryY=0;entryDx=0;entryDy=0;" edge="1" parent="1" source="3R7wzzP7kjICKfFNbeku-351" target="3R7wzzP7kjICKfFNbeku-352">
          <mxGeometry relative="1" as="geometry" />
        </mxCell>
        <mxCell id="3R7wzzP7kjICKfFNbeku-351" value="strcpy_s(newNode-&amp;gt;data, data);" style="rounded=0;whiteSpace=wrap;html=1;" vertex="1" parent="1">
          <mxGeometry x="2830" y="524.97" width="120" height="30" as="geometry" />
        </mxCell>
        <mxCell id="3R7wzzP7kjICKfFNbeku-363" style="edgeStyle=orthogonalEdgeStyle;rounded=0;orthogonalLoop=1;jettySize=auto;html=1;exitX=0.5;exitY=1;exitDx=0;exitDy=0;entryX=0.5;entryY=0;entryDx=0;entryDy=0;" edge="1" parent="1" source="3R7wzzP7kjICKfFNbeku-352" target="3R7wzzP7kjICKfFNbeku-360">
          <mxGeometry relative="1" as="geometry" />
        </mxCell>
        <mxCell id="3R7wzzP7kjICKfFNbeku-352" value="newNode-&gt;prev = nullptr;" style="rounded=0;whiteSpace=wrap;html=1;" vertex="1" parent="1">
          <mxGeometry x="2830" y="579.97" width="120" height="30" as="geometry" />
        </mxCell>
        <mxCell id="3R7wzzP7kjICKfFNbeku-358" style="edgeStyle=orthogonalEdgeStyle;rounded=0;orthogonalLoop=1;jettySize=auto;html=1;exitX=0.5;exitY=1;exitDx=0;exitDy=0;" edge="1" parent="1">
          <mxGeometry relative="1" as="geometry">
            <mxPoint x="2900" y="357" as="targetPoint" />
            <mxPoint x="2900" y="337.5" as="sourcePoint" />
          </mxGeometry>
        </mxCell>
        <mxCell id="3R7wzzP7kjICKfFNbeku-359" value="&lt;div&gt;char data[100];&lt;br&gt;&lt;/div&gt;" style="rounded=0;whiteSpace=wrap;html=1;" vertex="1" parent="1">
          <mxGeometry x="2840" y="357" width="120" height="30" as="geometry" />
        </mxCell>
        <mxCell id="3R7wzzP7kjICKfFNbeku-360" value="newNode-&amp;gt;next = nullptr;" style="rounded=0;whiteSpace=wrap;html=1;" vertex="1" parent="1">
          <mxGeometry x="2830" y="630" width="120" height="30" as="geometry" />
        </mxCell>
        <mxCell id="3R7wzzP7kjICKfFNbeku-364" value="" style="edgeStyle=orthogonalEdgeStyle;rounded=0;orthogonalLoop=1;jettySize=auto;html=1;" edge="1" parent="1">
          <mxGeometry relative="1" as="geometry">
            <mxPoint x="2888.7028571428573" y="660.0000000000001" as="sourcePoint" />
            <mxPoint x="2888.942857142857" y="680.0000000000001" as="targetPoint" />
          </mxGeometry>
        </mxCell>
        <mxCell id="3R7wzzP7kjICKfFNbeku-365" value="" style="edgeStyle=orthogonalEdgeStyle;rounded=0;orthogonalLoop=1;jettySize=auto;html=1;" edge="1" parent="1">
          <mxGeometry relative="1" as="geometry">
            <mxPoint x="2888.942857142857" y="660.0000000000001" as="sourcePoint" />
            <mxPoint x="2888.942857142857" y="680.0000000000001" as="targetPoint" />
          </mxGeometry>
        </mxCell>
        <mxCell id="3R7wzzP7kjICKfFNbeku-366" style="edgeStyle=orthogonalEdgeStyle;rounded=0;orthogonalLoop=1;jettySize=auto;html=1;exitX=0;exitY=0.5;exitDx=0;exitDy=0;" edge="1" source="3R7wzzP7kjICKfFNbeku-368" parent="1">
          <mxGeometry relative="1" as="geometry">
            <mxPoint x="2745" y="770.0000000000001" as="targetPoint" />
          </mxGeometry>
        </mxCell>
        <mxCell id="3R7wzzP7kjICKfFNbeku-367" style="edgeStyle=orthogonalEdgeStyle;rounded=0;orthogonalLoop=1;jettySize=auto;html=1;exitX=1;exitY=0.5;exitDx=0;exitDy=0;" edge="1" source="3R7wzzP7kjICKfFNbeku-368" parent="1">
          <mxGeometry relative="1" as="geometry">
            <mxPoint x="3045" y="770.0000000000001" as="targetPoint" />
          </mxGeometry>
        </mxCell>
        <mxCell id="3R7wzzP7kjICKfFNbeku-368" value="if (l.head == nullptr)" style="rhombus;whiteSpace=wrap;html=1;" vertex="1" parent="1">
          <mxGeometry x="2825" y="680.0000000000001" width="130" height="80" as="geometry" />
        </mxCell>
        <mxCell id="3R7wzzP7kjICKfFNbeku-382" style="edgeStyle=orthogonalEdgeStyle;rounded=0;orthogonalLoop=1;jettySize=auto;html=1;exitX=0.5;exitY=1;exitDx=0;exitDy=0;" edge="1" parent="1" source="3R7wzzP7kjICKfFNbeku-370">
          <mxGeometry relative="1" as="geometry">
            <mxPoint x="2745.0506329113923" y="810" as="targetPoint" />
          </mxGeometry>
        </mxCell>
        <mxCell id="3R7wzzP7kjICKfFNbeku-370" value="l.head = newNode;" style="rounded=0;whiteSpace=wrap;html=1;" vertex="1" parent="1">
          <mxGeometry x="2685" y="770.0000000000001" width="120" height="30" as="geometry" />
        </mxCell>
        <mxCell id="3R7wzzP7kjICKfFNbeku-375" style="edgeStyle=orthogonalEdgeStyle;rounded=0;orthogonalLoop=1;jettySize=auto;html=1;exitX=0.5;exitY=1;exitDx=0;exitDy=0;" edge="1" parent="1" source="3R7wzzP7kjICKfFNbeku-372">
          <mxGeometry relative="1" as="geometry">
            <mxPoint x="3045.0506329113923" y="810" as="targetPoint" />
          </mxGeometry>
        </mxCell>
        <mxCell id="3R7wzzP7kjICKfFNbeku-372" value="newNode-&amp;gt;prev = l.tail;" style="rounded=0;whiteSpace=wrap;html=1;" vertex="1" parent="1">
          <mxGeometry x="2985" y="770.0000000000001" width="120" height="30" as="geometry" />
        </mxCell>
        <mxCell id="3R7wzzP7kjICKfFNbeku-378" style="edgeStyle=orthogonalEdgeStyle;rounded=0;orthogonalLoop=1;jettySize=auto;html=1;exitX=0.5;exitY=1;exitDx=0;exitDy=0;" edge="1" parent="1" source="3R7wzzP7kjICKfFNbeku-373">
          <mxGeometry relative="1" as="geometry">
            <mxPoint x="2900" y="910" as="targetPoint" />
            <Array as="points">
              <mxPoint x="2745" y="910" />
            </Array>
          </mxGeometry>
        </mxCell>
        <mxCell id="3R7wzzP7kjICKfFNbeku-373" value="l.tail = newNode;" style="rounded=0;whiteSpace=wrap;html=1;" vertex="1" parent="1">
          <mxGeometry x="2685" y="810.0000000000001" width="120" height="30" as="geometry" />
        </mxCell>
        <mxCell id="3R7wzzP7kjICKfFNbeku-376" style="edgeStyle=orthogonalEdgeStyle;rounded=0;orthogonalLoop=1;jettySize=auto;html=1;exitX=0.5;exitY=1;exitDx=0;exitDy=0;" edge="1" parent="1" source="3R7wzzP7kjICKfFNbeku-374">
          <mxGeometry relative="1" as="geometry">
            <mxPoint x="3045.0526315789475" y="860" as="targetPoint" />
          </mxGeometry>
        </mxCell>
        <mxCell id="3R7wzzP7kjICKfFNbeku-374" value="l.tail-&amp;gt;next = newNode;" style="rounded=0;whiteSpace=wrap;html=1;" vertex="1" parent="1">
          <mxGeometry x="2985" y="810.0000000000001" width="120" height="30" as="geometry" />
        </mxCell>
        <mxCell id="3R7wzzP7kjICKfFNbeku-379" style="edgeStyle=orthogonalEdgeStyle;rounded=0;orthogonalLoop=1;jettySize=auto;html=1;exitX=0.5;exitY=1;exitDx=0;exitDy=0;" edge="1" parent="1" source="3R7wzzP7kjICKfFNbeku-377">
          <mxGeometry relative="1" as="geometry">
            <mxPoint x="2900" y="910" as="targetPoint" />
            <Array as="points">
              <mxPoint x="3040" y="910" />
            </Array>
          </mxGeometry>
        </mxCell>
        <mxCell id="3R7wzzP7kjICKfFNbeku-377" value="l.tail = newNode;" style="rounded=0;whiteSpace=wrap;html=1;" vertex="1" parent="1">
          <mxGeometry x="2980" y="860.0000000000001" width="120" height="30" as="geometry" />
        </mxCell>
        <mxCell id="3R7wzzP7kjICKfFNbeku-380" value="" style="endArrow=classic;html=1;rounded=0;" edge="1" parent="1">
          <mxGeometry width="50" height="50" relative="1" as="geometry">
            <mxPoint x="2900" y="910" as="sourcePoint" />
            <mxPoint x="2900" y="930" as="targetPoint" />
          </mxGeometry>
        </mxCell>
        <mxCell id="3R7wzzP7kjICKfFNbeku-383" style="edgeStyle=orthogonalEdgeStyle;rounded=0;orthogonalLoop=1;jettySize=auto;html=1;exitX=0.5;exitY=1;exitDx=0;exitDy=0;entryX=0;entryY=0.5;entryDx=0;entryDy=0;" edge="1" parent="1" source="3R7wzzP7kjICKfFNbeku-381" target="3R7wzzP7kjICKfFNbeku-347">
          <mxGeometry relative="1" as="geometry">
            <Array as="points">
              <mxPoint x="2900" y="980" />
              <mxPoint x="2670" y="980" />
              <mxPoint x="2670" y="430" />
            </Array>
          </mxGeometry>
        </mxCell>
        <mxCell id="3R7wzzP7kjICKfFNbeku-381" value="l.size++;" style="rounded=0;whiteSpace=wrap;html=1;" vertex="1" parent="1">
          <mxGeometry x="2840" y="930.0000000000001" width="120" height="30" as="geometry" />
        </mxCell>
        <mxCell id="3R7wzzP7kjICKfFNbeku-385" value="return;" style="ellipse;whiteSpace=wrap;html=1;" vertex="1" parent="1">
          <mxGeometry x="3010" y="470" width="120" height="40" as="geometry" />
        </mxCell>
        <mxCell id="3R7wzzP7kjICKfFNbeku-386" value="{" style="text;html=1;align=center;verticalAlign=middle;resizable=0;points=[];autosize=1;strokeColor=none;fillColor=none;" vertex="1" parent="1">
          <mxGeometry x="1125" y="1188" width="30" height="30" as="geometry" />
        </mxCell>
        <mxCell id="3R7wzzP7kjICKfFNbeku-387" value="}" style="text;html=1;align=center;verticalAlign=middle;resizable=0;points=[];autosize=1;strokeColor=none;fillColor=none;" vertex="1" parent="1">
          <mxGeometry x="1725" y="1538" width="30" height="30" as="geometry" />
        </mxCell>
        <mxCell id="3R7wzzP7kjICKfFNbeku-388" value="{" style="text;html=1;align=center;verticalAlign=middle;resizable=0;points=[];autosize=1;strokeColor=none;fillColor=none;" vertex="1" parent="1">
          <mxGeometry x="1125" y="398" width="30" height="30" as="geometry" />
        </mxCell>
        <mxCell id="3R7wzzP7kjICKfFNbeku-389" value="}" style="text;html=1;align=center;verticalAlign=middle;resizable=0;points=[];autosize=1;strokeColor=none;fillColor=none;" vertex="1" parent="1">
          <mxGeometry x="1275" y="988" width="30" height="30" as="geometry" />
        </mxCell>
        <mxCell id="3R7wzzP7kjICKfFNbeku-390" value="{" style="text;html=1;align=center;verticalAlign=middle;resizable=0;points=[];autosize=1;strokeColor=none;fillColor=none;" vertex="1" parent="1">
          <mxGeometry x="1435" y="388" width="30" height="30" as="geometry" />
        </mxCell>
        <mxCell id="3R7wzzP7kjICKfFNbeku-391" value="}" style="text;html=1;align=center;verticalAlign=middle;resizable=0;points=[];autosize=1;strokeColor=none;fillColor=none;" vertex="1" parent="1">
          <mxGeometry x="1575" y="998" width="30" height="30" as="geometry" />
        </mxCell>
        <mxCell id="3R7wzzP7kjICKfFNbeku-392" value="{" style="text;html=1;align=center;verticalAlign=middle;resizable=0;points=[];autosize=1;strokeColor=none;fillColor=none;" vertex="1" parent="1">
          <mxGeometry x="1675" y="398" width="30" height="30" as="geometry" />
        </mxCell>
        <mxCell id="3R7wzzP7kjICKfFNbeku-393" value="}" style="text;html=1;align=center;verticalAlign=middle;resizable=0;points=[];autosize=1;strokeColor=none;fillColor=none;" vertex="1" parent="1">
          <mxGeometry x="1815" y="988" width="30" height="30" as="geometry" />
        </mxCell>
        <mxCell id="3R7wzzP7kjICKfFNbeku-394" value="{" style="text;html=1;align=center;verticalAlign=middle;resizable=0;points=[];autosize=1;strokeColor=none;fillColor=none;" vertex="1" parent="1">
          <mxGeometry x="2195" y="398" width="30" height="30" as="geometry" />
        </mxCell>
        <mxCell id="3R7wzzP7kjICKfFNbeku-395" value="}" style="text;html=1;align=center;verticalAlign=middle;resizable=0;points=[];autosize=1;strokeColor=none;fillColor=none;" vertex="1" parent="1">
          <mxGeometry x="2565" y="598" width="30" height="30" as="geometry" />
        </mxCell>
        <mxCell id="3R7wzzP7kjICKfFNbeku-396" value="}" style="text;html=1;align=center;verticalAlign=middle;resizable=0;points=[];autosize=1;strokeColor=none;fillColor=none;" vertex="1" parent="1">
          <mxGeometry x="3125" y="508" width="30" height="30" as="geometry" />
        </mxCell>
        <mxCell id="3R7wzzP7kjICKfFNbeku-397" value="{" style="text;html=1;align=center;verticalAlign=middle;resizable=0;points=[];autosize=1;strokeColor=none;fillColor=none;" vertex="1" parent="1">
          <mxGeometry x="2785" y="288" width="30" height="30" as="geometry" />
        </mxCell>
        <mxCell id="3R7wzzP7kjICKfFNbeku-398" value="{" style="text;html=1;align=center;verticalAlign=middle;resizable=0;points=[];autosize=1;strokeColor=none;fillColor=none;" vertex="1" parent="1">
          <mxGeometry x="2135" y="1328" width="30" height="30" as="geometry" />
        </mxCell>
        <mxCell id="3R7wzzP7kjICKfFNbeku-399" value="}" style="text;html=1;align=center;verticalAlign=middle;resizable=0;points=[];autosize=1;strokeColor=none;fillColor=none;" vertex="1" parent="1">
          <mxGeometry x="2415" y="1568" width="30" height="30" as="geometry" />
        </mxCell>
        <mxCell id="3R7wzzP7kjICKfFNbeku-400" value="{" style="text;html=1;align=center;verticalAlign=middle;resizable=0;points=[];autosize=1;strokeColor=none;fillColor=none;" vertex="1" parent="1">
          <mxGeometry x="2055" y="1678" width="30" height="30" as="geometry" />
        </mxCell>
        <mxCell id="3R7wzzP7kjICKfFNbeku-402" value="}" style="text;html=1;align=center;verticalAlign=middle;resizable=0;points=[];autosize=1;strokeColor=none;fillColor=none;" vertex="1" parent="1">
          <mxGeometry x="2395" y="1848" width="30" height="30" as="geometry" />
        </mxCell>
        <mxCell id="3R7wzzP7kjICKfFNbeku-403" value="}" style="text;html=1;align=center;verticalAlign=middle;resizable=0;points=[];autosize=1;strokeColor=none;fillColor=none;" vertex="1" parent="1">
          <mxGeometry x="2945" y="1598" width="30" height="30" as="geometry" />
        </mxCell>
        <mxCell id="3R7wzzP7kjICKfFNbeku-404" value="{" style="text;html=1;align=center;verticalAlign=middle;resizable=0;points=[];autosize=1;strokeColor=none;fillColor=none;" vertex="1" parent="1">
          <mxGeometry x="2615" y="1338" width="30" height="30" as="geometry" />
        </mxCell>
        <mxCell id="3R7wzzP7kjICKfFNbeku-405" value="{" style="text;html=1;align=center;verticalAlign=middle;resizable=0;points=[];autosize=1;strokeColor=none;fillColor=none;" vertex="1" parent="1">
          <mxGeometry x="2665" y="1458" width="30" height="30" as="geometry" />
        </mxCell>
        <mxCell id="3R7wzzP7kjICKfFNbeku-406" value="}" style="text;html=1;align=center;verticalAlign=middle;resizable=0;points=[];autosize=1;strokeColor=none;fillColor=none;" vertex="1" parent="1">
          <mxGeometry x="2715" y="1628" width="30" height="30" as="geometry" />
        </mxCell>
        <mxCell id="3R7wzzP7kjICKfFNbeku-407" value="{" style="text;html=1;align=center;verticalAlign=middle;resizable=0;points=[];autosize=1;strokeColor=none;fillColor=none;" vertex="1" parent="1">
          <mxGeometry x="2175" y="1458" width="30" height="30" as="geometry" />
        </mxCell>
        <mxCell id="3R7wzzP7kjICKfFNbeku-408" value="}" style="text;html=1;align=center;verticalAlign=middle;resizable=0;points=[];autosize=1;strokeColor=none;fillColor=none;" vertex="1" parent="1">
          <mxGeometry x="2245" y="1568" width="30" height="30" as="geometry" />
        </mxCell>
        <mxCell id="3R7wzzP7kjICKfFNbeku-409" value="{" style="text;html=1;align=center;verticalAlign=middle;resizable=0;points=[];autosize=1;strokeColor=none;fillColor=none;" vertex="1" parent="1">
          <mxGeometry x="2135" y="1798" width="30" height="30" as="geometry" />
        </mxCell>
        <mxCell id="3R7wzzP7kjICKfFNbeku-410" value="}" style="text;html=1;align=center;verticalAlign=middle;resizable=0;points=[];autosize=1;strokeColor=none;fillColor=none;" vertex="1" parent="1">
          <mxGeometry x="2185" y="1888" width="30" height="30" as="geometry" />
        </mxCell>
        <mxCell id="3R7wzzP7kjICKfFNbeku-411" value="1" style="text;html=1;align=center;verticalAlign=middle;resizable=0;points=[];autosize=1;strokeColor=none;fillColor=none;" vertex="1" parent="1">
          <mxGeometry x="2795" y="688" width="30" height="30" as="geometry" />
        </mxCell>
        <mxCell id="3R7wzzP7kjICKfFNbeku-412" value="0" style="text;html=1;align=center;verticalAlign=middle;resizable=0;points=[];autosize=1;strokeColor=none;fillColor=none;" vertex="1" parent="1">
          <mxGeometry x="2945" y="688" width="30" height="30" as="geometry" />
        </mxCell>
        <mxCell id="3R7wzzP7kjICKfFNbeku-413" value="{" style="text;html=1;align=center;verticalAlign=middle;resizable=0;points=[];autosize=1;strokeColor=none;fillColor=none;" vertex="1" parent="1">
          <mxGeometry x="2705" y="718" width="30" height="30" as="geometry" />
        </mxCell>
        <mxCell id="3R7wzzP7kjICKfFNbeku-414" value="}" style="text;html=1;align=center;verticalAlign=middle;resizable=0;points=[];autosize=1;strokeColor=none;fillColor=none;" vertex="1" parent="1">
          <mxGeometry x="2745" y="848" width="30" height="30" as="geometry" />
        </mxCell>
        <mxCell id="3R7wzzP7kjICKfFNbeku-415" value="{" style="text;html=1;align=center;verticalAlign=middle;resizable=0;points=[];autosize=1;strokeColor=none;fillColor=none;" vertex="1" parent="1">
          <mxGeometry x="2985" y="728" width="30" height="30" as="geometry" />
        </mxCell>
        <mxCell id="3R7wzzP7kjICKfFNbeku-416" value="}" style="text;html=1;align=center;verticalAlign=middle;resizable=0;points=[];autosize=1;strokeColor=none;fillColor=none;" vertex="1" parent="1">
          <mxGeometry x="3045" y="890" width="30" height="30" as="geometry" />
        </mxCell>
        <mxCell id="3R7wzzP7kjICKfFNbeku-417" value="1" style="text;html=1;align=center;verticalAlign=middle;resizable=0;points=[];autosize=1;strokeColor=none;fillColor=none;" vertex="1" parent="1">
          <mxGeometry x="2205" y="638" width="30" height="30" as="geometry" />
        </mxCell>
        <mxCell id="3R7wzzP7kjICKfFNbeku-418" value="0" style="text;html=1;align=center;verticalAlign=middle;resizable=0;points=[];autosize=1;strokeColor=none;fillColor=none;" vertex="1" parent="1">
          <mxGeometry x="2365" y="628" width="30" height="30" as="geometry" />
        </mxCell>
        <mxCell id="3R7wzzP7kjICKfFNbeku-419" value="1" style="text;html=1;align=center;verticalAlign=middle;resizable=0;points=[];autosize=1;strokeColor=none;fillColor=none;" vertex="1" parent="1">
          <mxGeometry x="2025" y="728" width="30" height="30" as="geometry" />
        </mxCell>
        <mxCell id="3R7wzzP7kjICKfFNbeku-420" value="0" style="text;html=1;align=center;verticalAlign=middle;resizable=0;points=[];autosize=1;strokeColor=none;fillColor=none;" vertex="1" parent="1">
          <mxGeometry x="2235" y="728" width="30" height="30" as="geometry" />
        </mxCell>
        <mxCell id="3R7wzzP7kjICKfFNbeku-421" value="1" style="text;html=1;align=center;verticalAlign=middle;resizable=0;points=[];autosize=1;strokeColor=none;fillColor=none;" vertex="1" parent="1">
          <mxGeometry x="2045" y="888" width="30" height="30" as="geometry" />
        </mxCell>
        <mxCell id="3R7wzzP7kjICKfFNbeku-422" value="0" style="text;html=1;align=center;verticalAlign=middle;resizable=0;points=[];autosize=1;strokeColor=none;fillColor=none;" vertex="1" parent="1">
          <mxGeometry x="2265" y="878" width="30" height="30" as="geometry" />
        </mxCell>
        <mxCell id="3R7wzzP7kjICKfFNbeku-423" value="1" style="text;html=1;align=center;verticalAlign=middle;resizable=0;points=[];autosize=1;strokeColor=none;fillColor=none;" vertex="1" parent="1">
          <mxGeometry x="1375" y="1608" width="30" height="30" as="geometry" />
        </mxCell>
        <mxCell id="3R7wzzP7kjICKfFNbeku-424" value="0" style="text;html=1;align=center;verticalAlign=middle;resizable=0;points=[];autosize=1;strokeColor=none;fillColor=none;" vertex="1" parent="1">
          <mxGeometry x="1555" y="1608" width="30" height="30" as="geometry" />
        </mxCell>
        <mxCell id="3R7wzzP7kjICKfFNbeku-425" value="{" style="text;html=1;align=center;verticalAlign=middle;resizable=0;points=[];autosize=1;strokeColor=none;fillColor=none;" vertex="1" parent="1">
          <mxGeometry x="1275" y="1648" width="30" height="30" as="geometry" />
        </mxCell>
        <mxCell id="3R7wzzP7kjICKfFNbeku-426" value="1" style="text;html=1;align=center;verticalAlign=middle;resizable=0;points=[];autosize=1;strokeColor=none;fillColor=none;" vertex="1" parent="1">
          <mxGeometry x="1205" y="1798" width="30" height="30" as="geometry" />
        </mxCell>
        <mxCell id="3R7wzzP7kjICKfFNbeku-427" value="0" style="text;html=1;align=center;verticalAlign=middle;resizable=0;points=[];autosize=1;strokeColor=none;fillColor=none;" vertex="1" parent="1">
          <mxGeometry x="1405" y="1808" width="30" height="30" as="geometry" />
        </mxCell>
        <mxCell id="3R7wzzP7kjICKfFNbeku-428" value="1" style="text;html=1;align=center;verticalAlign=middle;resizable=0;points=[];autosize=1;strokeColor=none;fillColor=none;" vertex="1" parent="1">
          <mxGeometry x="1515" y="1858" width="30" height="30" as="geometry" />
        </mxCell>
        <mxCell id="3R7wzzP7kjICKfFNbeku-429" value="0" style="text;html=1;align=center;verticalAlign=middle;resizable=0;points=[];autosize=1;strokeColor=none;fillColor=none;" vertex="1" parent="1">
          <mxGeometry x="1725" y="1858" width="30" height="30" as="geometry" />
        </mxCell>
        <mxCell id="3R7wzzP7kjICKfFNbeku-430" value="}" style="text;html=1;align=center;verticalAlign=middle;resizable=0;points=[];autosize=1;strokeColor=none;fillColor=none;" vertex="1" parent="1">
          <mxGeometry x="1335" y="1948" width="30" height="30" as="geometry" />
        </mxCell>
        <mxCell id="3R7wzzP7kjICKfFNbeku-431" value="{" style="text;html=1;align=center;verticalAlign=middle;resizable=0;points=[];autosize=1;strokeColor=none;fillColor=none;" vertex="1" parent="1">
          <mxGeometry x="1585" y="1648" width="30" height="30" as="geometry" />
        </mxCell>
        <mxCell id="3R7wzzP7kjICKfFNbeku-433" value="}" style="text;html=1;align=center;verticalAlign=middle;resizable=0;points=[];autosize=1;strokeColor=none;fillColor=none;" vertex="1" parent="1">
          <mxGeometry x="1665" y="2008" width="30" height="30" as="geometry" />
        </mxCell>
        <mxCell id="3R7wzzP7kjICKfFNbeku-434" value="{" style="text;html=1;align=center;verticalAlign=middle;resizable=0;points=[];autosize=1;strokeColor=none;fillColor=none;" vertex="1" parent="1">
          <mxGeometry x="1365" y="1418" width="30" height="30" as="geometry" />
        </mxCell>
        <mxCell id="3R7wzzP7kjICKfFNbeku-435" value="}" style="text;html=1;align=center;verticalAlign=middle;resizable=0;points=[];autosize=1;strokeColor=none;fillColor=none;" vertex="1" parent="1">
          <mxGeometry x="1475" y="2108" width="30" height="30" as="geometry" />
        </mxCell>
      </root>
    </mxGraphModel>
  </diagram>
</mxfile>
